<?xml version="1.0" standalone="no"?>
<!DOCTYPE svg PUBLIC "-//W3C//DTD SVG 20010904//EN"
 "http://www.w3.org/TR/2001/REC-SVG-20010904/DTD/svg10.dtd">
<svg version="1.0" xmlns="http://www.w3.org/2000/svg"
 width="518.000000pt" height="380.000000pt" viewBox="0 0 518.000000 380.000000"
 preserveAspectRatio="xMidYMid meet">

<g transform="translate(0.000000,380.000000) scale(0.100000,-0.100000)"
fill="#000099" stroke="none">
<path d="M0 1900 l0 -1900 2590 0 2590 0 0 1900 0 1900 -2590 0 -2590 0 0
-1900z m3179 603 c0 -32 -6 -107 -12 -168 l-12 -110 -295 -110 -294 -110 282
-3 282 -2 0 -28 c0 -34 -70 -820 -75 -847 -4 -17 -45 -32 -267 -98 -145 -43
-269 -77 -275 -77 -21 0 -527 152 -537 161 -5 4 -15 70 -22 146 -7 76 -16 164
-19 196 l-6 57 154 0 155 0 12 -79 12 -79 123 -37 123 -38 118 37 c66 20 122
40 125 44 8 8 33 291 27 298 -3 2 -198 8 -434 12 l-429 7 -12 125 c-6 69 -12
141 -12 160 l-1 35 193 74 c105 41 239 92 297 115 l105 41 -310 5 -310 5 -12
120 c-6 66 -12 137 -12 157 l-1 38 338 3 c185 1 487 3 670 5 l332 2 -1 -57z"/>
</g>
</svg>
