<?xml version="1.0" standalone="no"?>
<!DOCTYPE svg PUBLIC "-//W3C//DTD SVG 20010904//EN"
 "http://www.w3.org/TR/2001/REC-SVG-20010904/DTD/svg10.dtd">
<svg version="1.0" xmlns="http://www.w3.org/2000/svg"
 width="400px" height="400px" viewBox="0 0 1242.000000 708.000000"
 preserveAspectRatio="xMidYMid meet">

<g transform="translate(0.000000,708.000000) scale(0.100000,-0.100000)"
fill="#009BD8" stroke="none">
<path d="M0 3540 l0 -3540 6210 0 6210 0 0 3540 0 3540 -6210 0 -6210 0 0
-3540z m5460 2624 c86 -16 189 -53 289 -104 90 -45 286 -179 381 -260 47 -40
93 -80 102 -87 15 -13 25 -7 99 56 223 194 436 323 629 382 60 19 99 23 190
24 110 0 118 -1 181 -32 222 -109 316 -422 263 -873 -8 -74 -24 -175 -34 -224
-10 -50 -16 -94 -14 -98 2 -3 19 -10 37 -14 59 -12 271 -96 367 -144 214 -108
398 -258 468 -381 106 -188 70 -363 -112 -545 -50 -49 -127 -114 -171 -142
-111 -73 -296 -162 -450 -217 -71 -26 -131 -48 -133 -50 -2 -1 6 -49 17 -106
106 -562 23 -958 -227 -1081 -64 -32 -71 -33 -187 -32 -104 0 -131 4 -205 28
-178 59 -399 191 -591 355 l-107 90 -63 -55 c-441 -385 -836 -519 -1070 -365
-183 122 -263 439 -214 856 9 72 24 169 34 218 10 48 16 89 12 91 -3 2 -64 25
-136 51 -155 56 -343 146 -442 212 -517 343 -459 740 152 1060 102 53 327 143
394 158 31 7 33 9 28 39 -55 309 -67 424 -61 571 17 409 172 627 450 634 23 1
79 -6 124 -15z m2457 -4399 c47 -14 157 -96 143 -107 -3 -2 -27 -21 -53 -42
l-48 -38 -27 25 c-42 38 -71 50 -129 50 -66 0 -103 -22 -103 -63 0 -42 34 -63
150 -95 167 -46 221 -96 222 -209 1 -75 -17 -120 -63 -160 -48 -41 -103 -56
-202 -56 -92 0 -167 22 -213 62 -59 52 -59 60 -4 101 27 20 53 37 57 37 5 0
14 -9 21 -21 18 -29 89 -59 140 -59 59 0 110 23 118 54 15 62 -12 84 -154 126
-168 50 -217 97 -216 210 1 98 58 166 159 191 52 12 149 10 202 -6z m-3373 -5
c85 -14 127 -38 154 -90 31 -62 31 -169 -1 -225 -20 -35 -67 -77 -100 -88 -7
-2 22 -55 76 -135 48 -73 87 -134 87 -137 0 -3 -35 -5 -78 -5 l-79 0 -86 130
c-84 125 -88 130 -122 130 l-35 0 0 -130 0 -130 -70 0 -70 0 0 345 0 345 133
0 c72 0 158 -4 191 -10z m2886 -273 c0 -273 -1 -284 -22 -327 -32 -63 -91 -91
-190 -92 -40 0 -92 5 -116 11 -47 13 -46 8 -17 91 13 38 9 37 110 24 37 -4 55
-2 70 9 19 15 20 29 23 291 l3 276 69 0 70 0 0 -283z m-782 186 l3 -73 59 0
60 0 0 -50 0 -50 -60 0 -60 0 0 -148 c0 -135 2 -151 20 -167 15 -14 29 -16 63
-11 l44 7 10 -50 c12 -60 8 -63 -98 -63 -82 0 -125 21 -151 72 -15 29 -18 63
-18 198 l0 162 -35 0 -35 0 0 50 0 50 35 0 35 0 0 75 0 76 63 -3 62 -3 3 -72z
m-1473 -74 c73 -22 119 -99 131 -216 l7 -73 -177 0 c-194 0 -190 2 -162 -64 8
-18 24 -41 37 -50 34 -23 125 -21 166 4 l33 20 46 -33 46 -32 -42 -37 c-45
-40 -94 -54 -187 -51 -158 5 -230 77 -241 239 -8 136 32 240 110 280 58 30
158 36 233 13z m585 -12 c75 -36 80 -56 80 -299 l0 -208 -55 0 c-52 0 -55 1
-55 25 l0 25 -55 -31 c-95 -54 -204 -40 -258 33 -31 42 -35 126 -7 176 32 57
82 81 193 94 50 6 98 12 105 14 18 5 5 55 -21 78 -31 26 -137 19 -169 -12
l-23 -21 -47 30 c-41 27 -46 34 -37 50 36 69 244 96 349 46z m548 11 c33 -10
92 -53 92 -68 0 -5 -18 -22 -41 -38 l-41 -31 -31 20 c-43 26 -116 25 -150 -1
-63 -50 -63 -230 0 -280 36 -28 120 -28 156 1 l27 20 45 -31 c25 -17 45 -35
45 -40 0 -13 -59 -56 -95 -70 -41 -16 -151 -15 -205 1 -104 31 -157 134 -147
285 8 142 73 224 189 242 57 9 103 6 156 -10z"/>
<path d="M5270 5968 c-180 -50 -234 -460 -125 -944 l5 -21 127 28 c71 16 200
38 288 50 147 20 162 24 180 48 111 143 232 289 287 347 38 39 68 75 67 80 0
5 -41 43 -92 86 -298 247 -578 371 -737 326z"/>
<path d="M7033 5965 c-164 -45 -376 -173 -580 -352 l-63 -55 78 -87 c87 -96
196 -227 260 -311 l41 -56 133 -18 c73 -9 202 -31 287 -48 114 -23 155 -28
160 -19 11 16 39 187 51 301 19 190 4 385 -39 501 -25 67 -74 127 -117 145
-42 18 -143 17 -211 -1z"/>
<path d="M6194 5358 c-47 -49 -194 -223 -194 -230 0 -2 110 -3 245 -3 135 0
245 3 245 7 0 13 -230 278 -242 278 -2 0 -26 -24 -54 -52z"/>
<path d="M5979 4921 c-70 -5 -132 -11 -138 -15 -33 -21 -239 -362 -343 -568
l-69 -137 71 -140 c76 -150 211 -380 292 -497 l48 -71 92 -7 c117 -8 504 -8
630 1 l98 6 73 111 c87 131 226 373 291 505 l47 95 -66 130 c-79 155 -184 335
-276 472 -67 100 -68 101 -115 108 -78 10 -500 15 -635 7z m342 -311 c242 -46
392 -292 321 -527 -79 -257 -377 -370 -611 -230 -134 80 -213 249 -191 406 27
195 202 352 401 360 15 1 51 -4 80 -9z"/>
<path d="M5440 4860 c-58 -11 -135 -27 -172 -36 -80 -19 -79 0 -11 -198 68
-201 61 -196 120 -85 28 52 81 146 119 209 38 63 71 118 72 123 5 9 -5 8 -128
-13z"/>
<path d="M6930 4873 c0 -5 11 -24 24 -44 35 -52 112 -182 163 -279 25 -47 49
-88 52 -92 7 -8 65 143 105 274 l24 77 -66 15 c-69 15 -198 40 -264 51 -21 3
-38 2 -38 -2z"/>
<path d="M4860 4706 c-233 -87 -464 -224 -556 -329 -45 -52 -84 -132 -84 -174
0 -158 282 -375 672 -514 60 -22 110 -34 113 -29 3 5 28 76 55 157 27 81 71
201 98 265 l50 117 -68 169 c-38 92 -83 216 -101 275 -24 76 -38 107 -49 107
-8 -1 -67 -20 -130 -44z"/>
<path d="M7444 4608 c-26 -79 -71 -201 -101 -273 l-53 -129 56 -136 c31 -74
77 -196 101 -270 25 -74 47 -138 50 -142 13 -24 387 140 523 229 155 102 260
230 260 317 0 121 -165 279 -428 410 -91 46 -322 136 -348 136 -7 0 -33 -61
-60 -142z"/>
<path d="M5309 3923 c-38 -98 -107 -319 -101 -324 8 -7 237 -54 316 -65 28 -4
47 -3 44 2 -3 5 -36 61 -75 124 -38 63 -91 154 -117 203 -26 48 -49 87 -52 87
-2 0 -9 -12 -15 -27z"/>
<path d="M7141 3903 c-20 -41 -106 -192 -192 -337 l-23 -39 50 7 c71 10 301
58 313 65 15 10 -100 351 -118 351 -4 0 -17 -21 -30 -47z"/>
<path d="M5146 3383 c-11 -39 -27 -134 -41 -242 -40 -303 3 -570 107 -669 54
-51 123 -61 235 -34 109 27 277 110 395 194 111 80 258 205 258 219 0 6 -26
38 -58 72 -92 99 -216 249 -309 376 -1 2 -53 10 -115 18 -62 8 -191 30 -286
49 -95 19 -175 34 -177 34 -2 0 -6 -8 -9 -17z"/>
<path d="M7299 3396 c-8 -9 -216 -48 -372 -71 -87 -12 -159 -24 -161 -26 -62
-85 -187 -241 -265 -329 -55 -63 -101 -118 -101 -121 0 -13 189 -163 295 -234
304 -204 540 -242 631 -101 31 47 61 133 73 213 22 142 8 434 -29 583 -4 19
-11 47 -14 63 -5 20 -12 27 -30 27 -12 0 -25 -2 -27 -4z"/>
<path d="M6017 3258 c11 -13 58 -68 105 -123 47 -55 95 -109 108 -120 l22 -20
62 65 c33 36 89 100 124 143 l63 77 -252 0 -252 0 20 -22z"/>
<path d="M4360 1550 l0 -90 63 0 c78 0 134 15 147 40 17 33 12 98 -10 120 -17
17 -33 20 -110 20 l-90 0 0 -90z"/>
<path d="M5006 1488 c-15 -13 -29 -38 -32 -55 l-6 -33 107 0 c94 0 106 2 101
16 -3 9 -6 22 -6 30 0 8 -11 26 -25 39 -33 34 -103 35 -139 3z"/>
<path d="M5611 1309 c-74 -14 -108 -66 -75 -116 14 -23 21 -25 64 -21 26 3 64
15 84 27 33 21 36 26 36 72 0 49 0 49 -32 48 -18 -1 -53 -5 -77 -10z"/>
</g>
</svg>
