<?xml version="1.0" standalone="no"?>
<!DOCTYPE svg PUBLIC "-//W3C//DTD SVG 20010904//EN"
 "http://www.w3.org/TR/2001/REC-SVG-20010904/DTD/svg10.dtd">
<svg version="1.0" xmlns="http://www.w3.org/2000/svg"
 width="204" height="204" viewBox="0 0 1024.000000 535.000000"
 preserveAspectRatio="xMidYMid meet">

<g transform="translate(0.000000,535.000000) scale(0.100000,-0.100000)"
fill="#009BD8" stroke="none">
<path d="M0 2675 l0 -2675 5120 0 5120 0 0 2675 0 2675 -5120 0 -5120 0 0
-2675z m5560 1097 c74 -42 140 -83 147 -91 17 -21 19 -1488 2 -1523 -6 -15
-72 -58 -176 -118 -92 -52 -210 -121 -264 -152 -54 -32 -109 -58 -122 -58 -14
0 -78 31 -143 69 -66 38 -184 107 -264 153 -90 52 -150 94 -157 109 -9 17 -13
106 -13 325 0 273 2 304 18 322 15 17 469 283 534 312 24 11 34 8 102 -29 41
-22 82 -41 91 -41 13 0 15 46 15 399 0 349 2 402 16 415 18 19 10 22 214 -92z
m2743 -676 c40 -24 149 -87 242 -141 94 -53 180 -108 193 -122 22 -24 22 -26
22 -338 0 -371 15 -330 -160 -431 -63 -36 -177 -101 -252 -145 -75 -43 -148
-79 -160 -79 -25 0 -210 101 -215 117 -2 5 14 18 35 27 37 17 41 17 73 1 19
-10 46 -26 61 -36 14 -11 33 -19 41 -19 9 0 60 26 114 58 54 32 105 61 113 65
8 3 71 39 140 80 l125 73 0 288 0 288 -244 141 -244 140 -36 -19 c-20 -10 -67
-37 -106 -60 -38 -22 -134 -78 -213 -123 l-142 -83 2 -286 3 -286 75 -43 c82
-46 137 -55 161 -26 11 12 15 81 19 307 l5 291 35 0 35 0 0 -317 0 -318 -32
-31 c-26 -27 -41 -33 -88 -37 -52 -4 -64 -1 -143 39 -47 24 -100 58 -119 75
l-33 31 0 314 c0 261 3 318 15 336 8 11 81 59 162 106 82 47 200 115 263 151
135 78 141 79 253 12z m-5969 -78 c116 -67 234 -135 262 -150 29 -16 57 -34
63 -42 8 -9 10 -134 9 -432 -3 -393 -4 -419 -21 -422 -18 -4 -263 129 -324
175 l-33 24 0 203 c0 239 4 229 -114 291 l-76 40 -66 -35 c-37 -19 -80 -47
-95 -62 l-29 -26 0 -204 c0 -111 -4 -208 -8 -215 -14 -22 -325 -194 -346 -191
-21 3 -21 4 -24 418 -2 323 1 420 10 432 20 26 530 317 557 317 13 1 119 -54
235 -121z m1356 89 c30 -18 80 -47 110 -64 127 -70 356 -206 373 -220 15 -15
17 -44 17 -338 0 -246 -3 -325 -12 -333 -29 -23 -541 -312 -553 -312 -12 0
-170 88 -450 251 l-110 64 -3 327 -2 327 32 24 c18 13 98 61 178 107 80 46
190 110 245 142 55 32 105 58 110 58 6 0 35 -15 65 -33z m3253 -123 c139 -81
260 -153 270 -162 14 -12 17 -32 17 -112 0 -62 -4 -102 -12 -112 -21 -24 -329
-199 -347 -196 -13 3 -17 19 -19 78 -3 115 -2 113 -102 170 l-90 52 -58 -33
c-31 -17 -74 -43 -95 -56 l-38 -24 3 -106 3 -107 265 -152 c194 -112 266 -158
268 -173 2 -14 -8 -27 -35 -44 -76 -48 -300 -167 -314 -167 -20 0 -541 297
-556 318 -10 12 -13 93 -13 327 0 233 3 315 13 328 22 29 530 316 560 317 19
0 115 -50 280 -146z m2030 139 c-20 -4 -23 -11 -25 -61 l-2 -57 -3 57 c-3 49
-7 57 -26 61 -12 2 1 4 28 4 28 0 40 -2 28 -4z m76 -44 l14 -44 20 48 c11 26
23 47 28 47 5 0 8 -28 7 -62 -1 -42 -3 -51 -5 -25 -5 45 -19 48 -28 7 -7 -33
-23 -48 -30 -28 -2 7 -10 27 -17 43 l-12 30 -6 -40 c-7 -38 -7 -37 -9 18 -1
70 15 73 38 6z m-588 -353 c42 -21 89 -88 89 -128 0 -26 -3 -28 -40 -28 -36 0
-41 3 -54 34 -18 43 -40 55 -113 62 -77 8 -134 -11 -147 -49 -16 -44 7 -56
140 -78 131 -22 202 -51 222 -89 8 -15 11 -47 9 -80 -4 -49 -8 -58 -45 -91
-64 -56 -181 -74 -295 -44 -75 19 -104 39 -128 87 -29 58 -23 82 23 86 34 3
39 0 51 -30 18 -44 33 -55 91 -68 70 -16 164 -3 193 26 58 58 15 91 -150 116
-169 25 -207 53 -207 154 0 36 6 51 33 80 17 19 50 41 72 50 55 20 207 14 256
-10z m-1741 -145 c44 -27 45 -28 48 -85 4 -67 -7 -83 -69 -111 -40 -19 -41
-19 -86 6 -55 29 -63 44 -63 108 0 49 0 50 53 80 28 17 57 30 62 30 6 0 30
-13 55 -28z"/>
<path d="M5047 2638 l-88 -51 3 -111 3 -110 89 -52 89 -52 56 31 c31 17 73 41
94 54 l37 23 0 108 0 108 -88 52 c-49 29 -93 52 -98 52 -5 0 -49 -24 -97 -52z"/>
</g>
</svg>
