<?xml version="1.0" standalone="no"?>
<!DOCTYPE svg PUBLIC "-//W3C//DTD SVG 20010904//EN"
 "http://www.w3.org/TR/2001/REC-SVG-20010904/DTD/svg10.dtd">
<svg version="1.0" xmlns="http://www.w3.org/2000/svg"
 width="518.000000pt" height="380.000000pt" viewBox="0 0 518.000000 380.000000"
 preserveAspectRatio="xMidYMid meet">

<g transform="translate(0.000000,380.000000) scale(0.100000,-0.100000)"
fill="#000099" stroke="none">
<path d="M0 1900 l0 -1900 2590 0 2590 0 0 1900 0 1900 -2590 0 -2590 0 0
-1900z m2505 1004 c222 -59 415 -221 510 -428 35 -74 38 -78 63 -72 15 4 68 9
118 13 283 18 544 -161 630 -432 22 -69 23 -70 62 -77 99 -17 205 -102 258
-206 26 -51 28 -67 29 -157 0 -91 -3 -106 -31 -165 -38 -80 -105 -149 -182
-187 l-57 -28 -1250 0 -1250 0 -67 27 c-234 94 -378 300 -380 543 -2 168 57
310 174 427 100 99 252 166 379 168 34 0 36 2 53 58 85 268 317 472 601 528
86 17 256 11 340 -12z"/>
<path d="M2125 1969 c-51 -15 -73 -62 -34 -74 15 -5 25 -1 36 15 21 29 58 23
58 -10 0 -21 -6 -25 -45 -32 -27 -5 -52 -16 -62 -29 -23 -28 -23 -81 0 -102
22 -20 83 -22 100 -5 10 10 17 10 34 -1 18 -11 23 -10 40 7 16 16 18 24 9 40
-6 11 -11 52 -11 90 0 53 -4 72 -17 84 -24 21 -71 29 -108 17z m65 -152 c0
-33 -23 -62 -44 -54 -25 10 -30 36 -11 57 25 28 55 26 55 -3z"/>
<path d="M2723 1969 c-29 -8 -63 -41 -63 -61 0 -3 9 -10 21 -13 14 -5 28 0 44
15 26 24 51 21 62 -6 7 -20 -13 -34 -49 -34 -42 0 -82 -41 -82 -83 0 -19 6
-42 13 -51 17 -21 80 -21 109 0 20 14 23 14 28 0 8 -21 27 -20 47 2 11 12 13
22 7 32 -5 8 -10 48 -10 88 0 59 -4 76 -20 92 -11 11 -26 20 -34 20 -8 0 -20
2 -28 4 -7 2 -27 0 -45 -5z m67 -148 c0 -29 -34 -65 -53 -58 -22 8 -22 53 1
66 28 17 52 13 52 -8z"/>
<path d="M2310 1845 l0 -125 30 0 30 0 0 89 c0 66 4 92 15 101 12 10 18 10 30
0 11 -9 15 -35 15 -101 l0 -89 30 0 30 0 0 90 c0 75 3 91 18 98 35 19 42 4 42
-94 l0 -94 30 0 30 0 0 108 c0 93 -3 111 -18 125 -23 21 -61 22 -89 2 -18 -13
-22 -13 -33 0 -14 17 -71 20 -87 4 -8 -8 -13 -8 -17 0 -4 6 -18 11 -32 11
l-24 0 0 -125z"/>
<path d="M2910 1946 c0 -22 5 -25 40 -28 l40 -3 -45 -64 c-28 -41 -45 -75 -45
-94 0 -27 2 -29 28 -21 35 10 79 10 120 0 28 -7 32 -5 32 12 0 25 -19 40 -58
48 -18 4 -32 9 -32 11 0 3 18 30 40 62 22 31 40 67 40 79 0 21 -4 22 -80 22
-78 0 -80 -1 -80 -24z"/>
<path d="M3147 1959 c-45 -26 -62 -131 -31 -190 8 -17 30 -37 50 -45 71 -30
134 27 134 121 0 52 -21 99 -49 115 -25 13 -81 12 -104 -1z m80 -60 c19 -36
16 -93 -6 -120 -18 -22 -21 -23 -36 -8 -11 11 -16 34 -16 73 0 82 30 111 58
55z"/>
<path d="M3340 1845 l0 -125 30 0 30 0 0 83 c0 90 13 123 43 111 14 -5 17 -20
17 -100 l0 -94 30 0 30 0 0 109 c0 86 -3 113 -16 125 -20 20 -68 21 -87 1 -13
-13 -16 -13 -21 0 -3 8 -17 15 -31 15 l-25 0 0 -125z"/>
<path d="M3077 1694 c-13 -13 -7 -24 14 -24 11 0 19 5 17 12 -5 14 -22 21 -31
12z"/>
<path d="M2390 1592 l0 -98 42 -1 c57 -3 78 17 78 73 0 52 -22 78 -62 72 -25
-4 -28 -2 -28 24 0 18 -5 28 -15 28 -12 0 -15 -18 -15 -98z m88 -21 c4 -50 -7
-66 -37 -56 -16 5 -21 15 -21 40 0 49 9 67 34 63 17 -2 22 -11 24 -47z"/>
<path d="M2056 1608 c16 -77 31 -113 46 -116 12 -2 18 8 23 37 8 51 19 52 31
4 15 -62 37 -53 57 21 20 74 21 86 7 86 -5 0 -16 -21 -24 -47 -8 -28 -16 -42
-19 -33 -3 8 -9 28 -14 44 -14 46 -31 42 -46 -11 l-15 -48 -13 48 c-15 55 -45
68 -33 15z"/>
<path d="M2256 1618 c-37 -52 -9 -128 48 -128 30 0 56 15 56 32 0 4 -7 8 -15
8 -8 0 -15 -4 -15 -10 0 -14 -33 -13 -48 2 -26 26 -13 38 38 38 41 0 50 3 50
18 0 34 -29 62 -65 62 -24 0 -39 -7 -49 -22z m72 -10 c20 -20 14 -28 -23 -28
-19 0 -35 4 -35 8 0 12 22 32 35 32 6 0 16 -5 23 -12z"/>
<path d="M2572 1628 c-28 -28 -8 -63 45 -77 15 -4 28 -14 28 -22 0 -18 -42
-24 -61 -8 -19 16 -30 4 -14 -16 7 -9 29 -15 51 -15 33 0 41 4 51 26 11 23 10
29 -11 45 -13 11 -31 19 -42 19 -23 0 -35 18 -20 33 8 8 18 7 36 -3 29 -16 43
-7 25 15 -15 18 -71 20 -88 3z"/>
<path d="M2714 1619 c-22 -24 -25 -89 -5 -113 20 -24 87 -21 101 4 8 16 8 20
-4 20 -8 0 -18 -4 -21 -10 -10 -17 -44 -11 -55 9 -15 30 -14 31 40 31 46 0 50
2 50 23 0 52 -70 76 -106 36z m74 -21 c3 -14 -3 -18 -27 -18 -29 0 -41 17 -24
34 13 13 48 1 51 -16z"/>
<path d="M2844 1631 c-2 -2 -4 -35 -4 -73 0 -54 3 -68 15 -68 11 0 15 12 15
50 0 42 4 52 25 66 14 9 25 20 25 24 0 9 -68 9 -76 1z"/>
<path d="M2956 1566 c19 -56 30 -76 43 -76 17 0 22 12 59 138 2 6 -3 12 -10
12 -9 0 -19 -20 -27 -50 -7 -27 -16 -50 -20 -50 -4 0 -14 21 -22 47 -9 29 -22
49 -32 51 -14 3 -13 -7 9 -72z"/>
<path d="M3074 1626 c-10 -26 1 -139 14 -144 9 -3 12 17 12 77 0 49 -4 81 -10
81 -6 0 -13 -6 -16 -14z"/>
<path d="M3147 1625 c-25 -24 -30 -70 -12 -104 13 -26 22 -31 50 -31 31 0 55
20 55 44 0 12 -23 5 -35 -11 -29 -39 -69 24 -46 73 13 29 36 31 51 4 12 -23
30 -27 30 -6 0 39 -64 61 -93 31z"/>
<path d="M3278 1623 c-31 -36 -28 -104 5 -125 21 -13 74 -9 87 7 18 22 4 31
-24 15 -31 -16 -56 -7 -56 20 0 17 6 20 43 20 24 0 46 3 50 6 8 8 -11 57 -26
66 -21 14 -64 8 -79 -9z m72 -23 c10 -18 8 -20 -25 -20 -38 0 -38 0 -29 24 9
22 41 20 54 -4z"/>
<path d="M3412 1628 c-28 -28 -11 -58 42 -75 17 -5 32 -15 34 -21 6 -19 -27
-26 -54 -12 -28 16 -42 7 -24 -15 16 -19 84 -20 100 0 22 27 4 63 -35 71 -40
7 -53 20 -36 37 8 8 18 7 36 -3 29 -16 43 -7 25 15 -15 18 -71 20 -88 3z"/>
<path d="M3557 1620 c3 -11 7 -20 8 -20 1 0 5 9 8 20 3 12 0 20 -8 20 -8 0
-11 -8 -8 -20z"/>
<path d="M3590 1619 c0 -14 7 -19 25 -19 18 0 25 5 25 19 0 13 -7 19 -25 19
-18 0 -25 -6 -25 -19z"/>
</g>
</svg>
