<?xml version="1.0" standalone="no"?>
<!DOCTYPE svg PUBLIC "-//W3C//DTD SVG 20010904//EN"
 "http://www.w3.org/TR/2001/REC-SVG-20010904/DTD/svg10.dtd">
<svg version="1.0" xmlns="http://www.w3.org/2000/svg"
 width="518.000000pt" height="380.000000pt" viewBox="0 0 518.000000 380.000000"
 preserveAspectRatio="xMidYMid meet">

<g transform="translate(0.000000,380.000000) scale(0.100000,-0.100000)"
fill="#000099" stroke="none">
<path d="M0 1900 l0 -1900 2590 0 2590 0 0 1900 0 1900 -2590 0 -2590 0 0
-1900z m3054 591 c3 -5 1 -59 -6 -120 l-11 -111 -460 0 -459 0 7 -92 c3 -51 9
-101 11 -111 5 -17 29 -17 446 -11 431 7 440 7 435 -12 -4 -10 -20 -167 -37
-349 -17 -181 -34 -333 -38 -336 -4 -3 -116 -33 -249 -67 l-242 -61 -246 64
c-136 35 -249 65 -250 67 -3 3 -35 327 -35 352 0 4 55 5 123 4 l122 -3 9 -85
c5 -47 10 -87 12 -89 1 -1 60 -18 131 -35 l128 -32 128 32 c71 18 130 34 132
36 2 2 9 46 15 98 6 52 13 114 16 138 l5 42 -415 0 -415 0 -5 33 c-3 17 -17
156 -31 307 -14 151 -27 290 -29 307 l-5 33 312 3 c793 7 896 6 901 -2z m123
-313 c-3 -8 -6 -5 -6 6 -1 11 2 17 5 13 3 -3 4 -12 1 -19z"/>
</g>
</svg>
