<?xml version="1.0" standalone="no"?>
<!DOCTYPE svg PUBLIC "-//W3C//DTD SVG 20010904//EN"
 "http://www.w3.org/TR/2001/REC-SVG-20010904/DTD/svg10.dtd">
<svg version="1.0" xmlns="http://www.w3.org/2000/svg"
 width="518.000000pt" height="380.000000pt" viewBox="0 0 518.000000 380.000000"
 preserveAspectRatio="xMidYMid meet">

<g transform="translate(0.000000,380.000000) scale(0.100000,-0.100000)"
fill="#000099" stroke="none">
<path d="M0 1900 l0 -1900 2590 0 2590 0 0 1900 0 1900 -2590 0 -2590 0 0
-1900z m2275 1279 c82 -25 207 -99 315 -187 l91 -73 65 56 c138 117 299 206
411 227 250 46 378 -193 317 -591 -9 -58 -17 -114 -18 -124 -1 -13 29 -29 129
-70 496 -199 561 -484 164 -720 -52 -30 -184 -87 -280 -120 -15 -5 -16 -11 -3
-69 24 -106 30 -341 10 -429 -71 -319 -338 -326 -718 -20 l-77 62 -63 -53
c-146 -123 -300 -208 -415 -230 -248 -46 -377 192 -318 584 8 53 17 108 21
122 5 20 2 27 -12 32 -271 95 -450 212 -515 335 -31 60 -32 157 -2 214 59 111
194 211 396 292 71 28 130 53 132 55 2 2 -4 35 -12 73 -12 49 -17 121 -17 240
0 151 2 177 22 229 65 174 181 225 377 165z"/>
<path d="M2080 3073 c-72 -38 -108 -185 -90 -374 8 -88 28 -199 35 -199 1 0
45 9 96 19 52 11 121 22 154 26 89 10 90 10 146 83 29 37 80 98 113 136 l60
69 -49 44 c-177 156 -378 241 -465 196z"/>
<path d="M3125 3072 c-73 -25 -175 -85 -257 -151 -114 -90 -113 -75 -13 -193
157 -188 141 -174 218 -182 37 -4 111 -16 164 -26 53 -11 98 -19 99 -17 2 2
11 46 20 97 11 66 15 134 12 220 -3 114 -6 131 -32 184 -42 86 -103 105 -211
68z"/>
<path d="M2621 2685 c-27 -31 -60 -69 -71 -85 l-21 -30 145 0 c80 0 146 4 146
8 0 13 -129 162 -139 162 -5 0 -32 -25 -60 -55z"/>
<path d="M2513 2453 c-68 -4 -74 -6 -97 -36 -35 -46 -138 -222 -186 -317 l-41
-81 64 -123 c65 -124 158 -276 180 -294 19 -16 211 -25 359 -17 l134 7 56 86
c30 48 86 144 122 214 l67 127 -41 81 c-53 104 -164 292 -193 324 -22 25 -26
26 -187 29 -91 3 -198 3 -237 0z m276 -213 c85 -44 134 -127 134 -226 -1 -92
-50 -170 -138 -217 -55 -29 -155 -29 -210 0 -90 48 -139 126 -139 223 0 73 17
115 68 168 74 80 191 101 285 52z"/>
<path d="M2165 2409 c-49 -10 -95 -21 -102 -23 -8 -4 -2 -36 23 -111 20 -58
40 -102 45 -99 5 3 23 32 39 65 17 33 46 84 65 114 34 53 43 76 28 74 -5 -1
-48 -10 -98 -20z"/>
<path d="M3090 2420 c0 -5 18 -39 40 -74 21 -36 51 -88 65 -115 14 -28 29 -51
34 -51 12 0 71 162 71 196 0 7 -41 19 -92 29 -51 9 -99 18 -105 21 -7 2 -13
-1 -13 -6z"/>
<path d="M1845 2321 c-132 -52 -237 -113 -301 -176 -65 -64 -81 -100 -68 -157
11 -53 114 -146 222 -201 86 -45 211 -97 231 -97 5 0 19 30 32 68 12 37 39
111 60 164 l39 98 -44 107 c-24 60 -52 134 -61 166 -9 31 -22 57 -28 56 -7 0
-43 -13 -82 -28z"/>
<path d="M3400 2283 c-13 -37 -40 -112 -61 -165 l-39 -98 41 -102 c23 -57 50
-131 60 -165 11 -35 24 -63 29 -63 21 0 146 52 232 97 62 31 112 67 154 108
97 95 98 153 5 245 -65 64 -134 106 -260 161 -143 61 -135 62 -161 -18z"/>
<path d="M3210 1840 c-7 -17 -37 -71 -66 -121 -58 -99 -63 -113 -36 -105 9 3
56 12 105 22 66 13 87 21 87 33 0 23 -62 201 -70 201 -4 0 -13 -14 -20 -30z"/>
<path d="M2107 1823 c-19 -47 -47 -143 -47 -158 0 -7 36 -19 88 -29 48 -10 95
-19 105 -22 25 -8 21 9 -16 68 -19 29 -49 81 -67 116 -18 34 -36 62 -40 62 -4
0 -15 -17 -23 -37z"/>
<path d="M2009 1473 c-8 -40 -14 -131 -14 -223 0 -147 1 -158 27 -212 48 -103
128 -114 282 -40 81 39 220 136 265 185 l23 25 -79 94 c-43 51 -94 112 -112
135 -23 30 -41 44 -64 47 -80 12 -274 46 -293 52 -19 5 -23 -1 -35 -63z"/>
<path d="M3255 1525 c-33 -8 -96 -19 -140 -25 -44 -6 -90 -13 -102 -16 -12 -2
-43 -32 -70 -67 -26 -34 -77 -95 -112 -136 l-65 -74 50 -44 c116 -102 267
-187 363 -204 52 -10 65 -9 98 7 50 25 80 86 92 192 16 124 -14 383 -42 381
-7 -1 -39 -7 -72 -14z"/>
<path d="M2540 1459 c0 -10 114 -144 131 -154 5 -4 20 1 31 12 29 25 118 132
118 141 0 4 -63 8 -140 8 -77 0 -140 -3 -140 -7z"/>
</g>
</svg>
