<?xml version="1.0" standalone="no"?>
<!DOCTYPE svg PUBLIC "-//W3C//DTD SVG 20010904//EN"
 "http://www.w3.org/TR/2001/REC-SVG-20010904/DTD/svg10.dtd">
<svg version="1.0" xmlns="http://www.w3.org/2000/svg"
 width="204" height="204" viewBox="0 0 1600.000000 889.000000"
 preserveAspectRatio="xMidYMid meet">

<g transform="translate(0.000000,889.000000) scale(0.100000,-0.100000)"
fill="#009BD8" stroke="none">
<path d="M8118 7601 c-73 -15 -69 11 -66 -437 l3 -403 23 -23 c20 -21 34 -23
130 -26 161 -5 156 -13 153 219 -1 110 2 180 7 174 5 -5 48 -67 96 -137 48
-71 91 -128 96 -128 5 0 50 61 100 135 51 74 92 135 93 135 1 0 2 -73 3 -163
1 -178 8 -211 51 -229 29 -11 199 -14 234 -3 11 4 24 18 30 32 5 14 9 197 9
422 0 328 -2 401 -14 417 -13 17 -26 19 -108 18 -110 -1 -196 -23 -237 -62
-16 -15 -58 -73 -94 -129 l-64 -102 -23 32 c-13 17 -38 60 -56 96 -38 79 -83
124 -144 146 -52 19 -169 27 -222 16z"/>
<path d="M6097 7586 c-3 -8 -7 -203 -8 -432 -1 -338 2 -419 13 -430 18 -17
234 -23 265 -6 31 17 44 67 42 167 -2 106 1 109 100 119 83 7 128 0 141 -25 6
-10 10 -56 10 -103 0 -46 4 -96 10 -111 15 -39 65 -55 169 -55 72 0 93 3 112
19 l24 19 3 349 c3 380 0 441 -28 475 -16 21 -28 23 -133 26 -153 5 -157 2
-157 -136 0 -136 -1 -137 -131 -137 -100 0 -104 1 -116 25 -7 15 -13 62 -13
116 0 126 -3 128 -170 132 -108 3 -128 1 -133 -12z"/>
<path d="M7096 7584 c-3 -9 -6 -63 -6 -121 0 -78 4 -114 17 -140 l17 -36 98 6
c143 9 134 26 136 -271 1 -132 6 -252 12 -266 12 -33 35 -44 100 -47 113 -5
159 0 180 21 20 20 21 31 19 276 -1 226 1 258 15 272 13 14 38 17 121 17 70 1
109 5 117 13 20 20 21 240 2 270 l-14 22 -404 0 c-359 0 -405 -2 -410 -16z"/>
<path d="M9227 7582 c-15 -17 -17 -57 -17 -430 0 -360 2 -413 16 -426 13 -14
56 -16 322 -15 348 0 370 4 389 59 25 73 13 221 -20 242 -7 4 -94 8 -194 8
-122 0 -184 4 -189 11 -3 6 -8 121 -10 254 -4 320 1 312 -169 314 -97 2 -113
0 -128 -17z"/>
<path d="M5682 6300 c-12 -12 -22 -26 -22 -33 0 -25 92 -1035 110 -1207 19
-184 52 -566 56 -660 2 -52 6 -108 9 -125 2 -16 2 -22 -1 -12 -3 9 -9 17 -14
17 -10 0 -1 -102 9 -110 16 -12 27 -82 26 -157 -1 -46 2 -83 7 -83 4 0 7 -19
7 -42 l-1 -43 -10 40 c-6 22 -12 70 -15 108 -4 58 -7 67 -24 67 -17 0 -19 -8
-19 -65 0 -58 -2 -65 -20 -65 -18 0 -20 -7 -20 -80 0 -47 4 -80 10 -80 6 0 10
-34 10 -82 0 -122 20 -85 27 51 4 81 10 111 19 111 7 0 14 10 17 23 2 12 2 -7
1 -43 -2 -41 -1 -54 4 -36 10 44 27 28 25 -22 -2 -26 1 -41 7 -37 6 3 9 -15 9
-47 -1 -29 1 -69 5 -88 6 -34 5 -33 -7 5 l-13 40 -5 -50 c-3 -27 -2 -72 1
-100 7 -45 8 -46 10 -15 1 19 4 27 7 17 2 -9 9 -15 14 -12 5 4 6 -19 2 -54 -4
-43 -2 -61 6 -61 7 0 11 -30 11 -93 0 -53 5 -98 11 -104 16 -16 18 -275 2
-280 -9 -3 -13 -29 -12 -86 0 -91 17 -81 18 11 1 30 5 51 10 47 5 -3 11 3 14
12 2 10 6 -19 8 -65 2 -45 1 -82 -3 -82 -5 0 -9 10 -9 23 -1 17 -2 18 -6 4 -3
-10 3 -30 13 -45 19 -28 30 -142 14 -142 -10 0 -15 17 -25 75 -9 57 -15 75
-26 75 -5 0 -9 -12 -9 -26 0 -14 4 -23 9 -20 11 7 21 -27 21 -71 0 -18 5 -33
10 -33 6 0 10 -18 10 -40 0 -29 4 -40 15 -40 11 0 15 -11 15 -40 0 -22 -4 -40
-10 -40 -6 0 -10 -47 -10 -120 0 -73 4 -120 10 -120 17 0 11 -22 -14 -45 -18
-17 -22 -29 -18 -55 4 -29 6 -31 17 -17 17 24 45 11 46 -22 0 -24 1 -24 9 -6
7 14 8 9 4 -18 -4 -22 -2 -37 4 -37 6 0 11 -19 11 -43 2 -61 8 -138 15 -172 3
-16 3 -21 0 -10 -4 11 -10 25 -15 31 -9 11 -39 120 -39 142 0 7 5 10 10 7 6
-3 10 3 10 14 0 12 -4 21 -10 21 -5 0 -10 11 -10 24 0 17 -7 25 -25 28 l-24 5
-3 -171 c-3 -196 0 -206 72 -206 35 0 40 3 41 23 l0 22 10 -23 c5 -13 7 -28 4
-32 -3 -5 7 -13 22 -18 18 -7 22 -11 11 -11 -19 -1 -25 -21 -7 -21 8 0 8 -4 0
-13 -9 -11 5 -13 77 -11 49 1 109 -4 137 -11 28 -8 41 -14 30 -14 -11 -1 -36
3 -54 9 -19 5 -37 8 -39 5 -3 -3 9 -8 26 -11 18 -4 32 -10 32 -14 0 -4 33 -9
73 -11 57 -3 78 -9 96 -26 17 -16 29 -20 45 -14 14 6 25 4 34 -5 7 -8 8 -14 2
-14 -5 0 -10 -9 -10 -19 0 -15 9 -20 48 -23 39 -3 51 0 68 19 26 28 44 29 44
3 0 -11 4 -20 10 -20 5 0 7 6 4 14 -8 20 36 8 53 -13 7 -9 12 -11 13 -4 0 8 9
9 28 3 15 -5 43 -13 63 -19 19 -6 44 -11 55 -12 15 -1 14 -3 -6 -9 -19 -6 -12
-8 32 -9 31 -1 60 -5 63 -11 3 -5 12 -10 18 -10 7 0 6 4 -3 10 -11 8 -7 9 15
4 61 -15 60 -55 -2 -53 -24 0 -25 2 -9 8 16 6 11 10 -26 19 -57 15 -68 15 -68
2 0 -5 11 -10 25 -10 14 0 25 -4 25 -9 0 -15 -43 -26 -48 -12 -2 6 -21 11 -43
11 -28 0 -39 4 -39 15 0 11 -11 15 -40 15 -36 0 -40 -2 -40 -25 0 -18 5 -25
20 -25 20 0 20 -7 20 -645 l0 -645 4580 0 4580 0 0 2165 0 2165 -2880 0 -2880
0 -1 -40 c-2 -52 -3 -57 -11 -65 -10 -11 -21 62 -14 98 4 22 3 27 -3 17 -6 -8
-11 -12 -13 -10 -6 7 9 260 21 375 15 143 48 492 66 690 8 94 28 311 45 484
36 376 36 395 10 421 -20 20 -33 20 -2328 20 l-2308 0 -22 -20z m4150 -367
c-49 -5 -47 -23 3 -23 18 0 42 -3 52 -7 16 -6 15 -8 -7 -14 -23 -6 -23 -7 8
-8 l32 -1 0 -55 c0 -32 -4 -55 -11 -55 -5 0 -8 -3 -6 -7 6 -10 -21 -334 -28
-341 -3 -3 -5 2 -5 11 0 19 -16 23 -22 6 -2 -6 -3 50 -3 124 0 74 3 133 7 130
7 -4 10 -58 8 -170 0 -18 4 -33 9 -33 4 0 9 26 9 58 1 31 4 82 7 112 3 38 2
47 -4 30 -9 -25 -9 -25 -16 8 -4 17 -11 32 -16 32 -5 0 -9 32 -9 70 l0 70
-762 1 c-420 1 -794 2 -832 3 -45 1 -73 -3 -82 -11 -7 -7 -20 -13 -28 -13 -22
0 -20 37 2 43 9 3 -2 5 -25 6 -30 1 -43 5 -43 15 0 8 8 17 18 19 9 3 415 4
902 4 487 0 866 -2 842 -4z m-1772 -32 c0 -11 -31 -24 -39 -16 -3 3 1 10 9 15
19 12 30 12 30 1z m20 -20 c0 -5 -7 -17 -16 -25 -14 -14 -15 -44 -12 -216 2
-165 1 -200 -11 -200 -10 0 -11 -3 -2 -13 6 -8 8 -17 4 -20 -3 -4 4 -7 16 -7
12 0 20 3 18 8 -3 4 124 3 281 -1 276 -7 636 -4 830 9 69 5 92 9 92 20 0 11
20 14 90 14 53 0 90 -4 90 -10 0 -5 12 -10 26 -10 26 0 54 -20 54 -39 0 -6 -4
-11 -10 -11 -5 0 -9 -3 -9 -7 1 -5 0 -10 -1 -13 -8 -21 -5 -50 7 -50 7 0 13
-9 13 -20 0 -11 5 -20 10 -20 13 0 13 23 -1 37 -7 7 -8 24 -4 42 5 24 12 31
31 31 30 0 38 -18 24 -51 -10 -23 -10 -23 -6 -1 4 19 1 23 -17 20 -12 -2 -22
-10 -22 -18 0 -8 6 -14 13 -12 9 2 12 -6 10 -20 -2 -14 5 -30 17 -40 20 -17
19 -17 -10 -19 -16 -1 -36 -1 -42 0 -17 2 -16 -4 3 -23 8 -9 11 -16 5 -16 -14
0 -14 -47 0 -56 6 -3 15 0 20 7 12 19 12 -13 0 -63 -7 -28 -5 -38 6 -42 11 -4
11 -10 3 -26 -6 -11 -15 -18 -21 -15 -5 4 -9 -12 -9 -35 0 -34 -3 -41 -16 -36
-8 3 -12 2 -9 -4 3 -6 1 -10 -5 -10 -8 0 -10 10 -6 28 3 15 3 21 0 14 -5 -10
-10 -9 -25 4 -20 18 -26 40 -8 28 7 -4 10 -2 8 5 -8 22 -24 13 -27 -15 -2 -17
0 -24 7 -19 6 3 11 0 11 -9 0 -8 5 -16 12 -18 6 -2 9 -12 5 -21 -7 -20 -34
-13 -41 11 -2 10 -4 6 -3 -8 2 -28 18 -38 60 -39 l27 -1 -1 -77 0 -78 -17 62
c-17 62 -50 102 -72 88 -13 -8 -3 -46 15 -60 15 -12 18 -28 15 -65 l-2 -25 -7
25 c-5 14 -14 24 -22 21 -8 -2 -38 -3 -66 -3 -29 0 -50 -4 -47 -9 3 -5 30 -6
61 -3 46 4 54 2 50 -10 -3 -8 -1 -17 6 -20 7 -2 5 -5 -4 -5 -9 -1 -20 6 -23
15 -3 9 -11 12 -18 8 -16 -10 -76 -6 -101 7 -16 9 -17 13 -6 20 10 6 5 9 -16
8 -16 0 -24 -3 -17 -6 20 -8 14 -23 -10 -24 -22 -1 -22 -1 2 -9 17 -5 19 -8 7
-9 -9 -1 -26 5 -37 12 -14 8 -23 9 -28 2 -4 -6 -87 -11 -207 -12 -110 -1 -291
-3 -402 -5 -112 -2 -203 -1 -203 3 0 10 126 19 273 19 84 0 137 4 137 10 0 6
-73 9 -202 8 -120 0 -184 -4 -158 -8 27 -4 -37 -8 -156 -8 -148 -2 -203 1
-213 11 -10 10 -15 9 -25 -5 -16 -21 -30 -24 -23 -4 4 9 -5 15 -28 19 -48 8
-768 9 -788 1 -22 -8 -22 -41 3 -316 19 -199 23 -225 42 -240 23 -21 115 -23
526 -11 l242 6 2 206 c1 113 3 176 5 139 3 -51 8 -68 18 -68 12 0 15 -22 15
-124 0 -90 -3 -126 -12 -129 -8 -3 -6 -6 5 -6 9 -1 17 4 17 9 0 7 70 10 206
10 113 -1 208 1 212 4 3 3 182 6 399 6 307 0 393 -3 394 -12 0 -10 2 -10 6 -1
3 9 10 10 24 3 13 -7 25 -7 38 0 27 14 68 13 78 -2 13 -22 12 -37 -4 -31 -12
5 -12 7 -1 14 7 5 9 9 3 10 -40 6 -54 5 -49 -2 3 -5 0 -9 -7 -9 -8 0 -8 -4 1
-15 9 -11 9 -15 1 -15 -6 0 -14 7 -17 15 -4 8 -11 15 -17 15 -5 0 -2 -9 8 -20
10 -11 23 -19 29 -17 6 3 18 -2 27 -10 14 -12 19 -12 33 2 9 9 16 12 16 6 0
-5 -4 -12 -9 -15 -4 -3 -7 -30 -6 -61 2 -32 -2 -55 -7 -55 -7 0 -7 -4 0 -12
14 -18 27 -188 14 -188 -6 0 -13 6 -15 13 -3 7 -6 5 -6 -5 -1 -10 4 -18 10
-18 18 0 6 -229 -12 -241 -11 -7 -10 -9 4 -9 14 0 17 -9 16 -52 -1 -29 -4 -44
-6 -34 -4 15 -7 16 -14 5 -7 -9 -7 -5 -3 14 7 29 -11 77 -28 77 -5 0 -6 -6 -3
-12 4 -7 -3 -2 -14 11 l-21 23 -1 -38 -2 -39 -7 35 -7 35 -2 -37 c0 -21 5 -43
14 -52 14 -14 14 -19 -2 -48 -21 -40 -24 -52 -28 -103 -4 -39 -4 -40 4 -5 l7
35 6 -30 c3 -16 2 -35 -3 -41 -5 -6 -6 -14 -3 -17 4 -3 3 -14 0 -24 -6 -15 -8
-15 -16 -3 -8 12 -10 11 -10 -7 0 -24 15 -39 23 -23 3 6 4 5 2 -2 -1 -7 -8
-12 -14 -10 -6 1 -11 -4 -11 -12 0 -18 22 -34 27 -19 2 6 11 19 19 29 14 18
14 17 4 -5 -9 -18 -9 -25 0 -31 9 -6 9 -12 -2 -29 -11 -18 -11 -23 2 -31 8 -5
18 -6 22 -4 4 3 8 -2 8 -10 0 -9 -4 -16 -10 -16 -24 0 3 -149 28 -158 8 -2 10
3 5 13 -5 16 -4 15 15 -1 13 -11 22 -30 22 -46 0 -28 -15 -38 -23 -15 -2 6 -7
-96 -11 -228 -8 -298 -14 -365 -32 -365 -8 0 -14 5 -14 10 0 6 -18 10 -40 10
-22 0 -40 -4 -40 -9 0 -14 -70 -19 -80 -6 -7 8 -5 12 5 13 8 1 21 3 29 4 8 1
13 11 11 26 -2 17 3 26 16 29 11 3 19 9 19 14 0 12 -27 11 -35 -1 -4 -6 -11
-7 -17 -4 -7 5 -9 2 -6 -7 5 -14 -26 -52 -35 -42 -3 3 -14 0 -24 -7 -12 -8
-13 -10 -2 -7 9 3 16 -1 16 -8 0 -16 -51 -13 -53 4 -1 6 -2 18 -3 26 0 8 -5
15 -11 15 -11 0 -8 -35 3 -46 11 -11 8 -114 -3 -114 -6 0 -10 -30 -10 -70 0
-40 4 -70 10 -70 6 0 10 -6 10 -14 0 -19 -85 -26 -301 -26 -172 0 -179 -1
-179 -20 0 -11 -4 -20 -10 -20 -5 0 -10 9 -10 20 0 18 -7 20 -70 20 -56 0 -70
-3 -70 -15 0 -9 -9 -15 -22 -14 -13 0 -17 3 -10 6 19 8 14 23 -8 23 -11 0 -20
-7 -20 -15 0 -8 -2 -15 -4 -15 -2 0 -11 -3 -20 -6 -11 -4 -16 0 -16 14 0 11 4
22 9 24 15 5 19 138 4 138 -7 0 -10 -7 -6 -16 5 -12 0 -15 -23 -13 -39 3 -66
-10 -60 -28 7 -17 -28 -66 -38 -55 -4 3 -4 -2 0 -13 6 -14 4 -17 -8 -12 -17 6
-33 -17 -29 -41 3 -18 -17 -14 -42 9 l-22 20 -3 -20 c-2 -13 -11 -21 -23 -21
-15 0 -19 -7 -19 -35 0 -19 -4 -35 -10 -35 -6 0 -10 -47 -10 -120 0 -98 -3
-120 -14 -120 -10 0 -16 13 -19 38 -2 20 -3 9 0 -25 2 -35 -1 -64 -7 -68 -15
-9 -12 -22 5 -22 8 0 15 9 15 19 0 11 7 18 20 18 16 0 20 -7 20 -30 0 -24 -4
-30 -22 -30 -17 0 -19 -3 -9 -9 8 -5 10 -14 6 -21 -6 -9 -12 -6 -21 11 l-13
24 -16 -35 c-15 -33 -16 -34 -9 -5 3 17 6 124 5 240 -1 166 -4 212 -16 225 -8
9 -15 30 -17 47 -1 17 -5 30 -9 27 -4 -2 -80 17 -170 41 -202 56 -375 104
-539 150 -69 19 -184 49 -256 68 -225 58 -241 72 -254 228 -5 57 -19 205 -29
329 -34 375 -34 385 -22 408 12 22 16 22 285 22 258 0 274 -1 291 -20 13 -15
20 -53 31 -167 18 -201 22 -222 44 -253 22 -30 79 -51 320 -116 206 -56 242
-64 282 -64 l36 0 2 378 c2 445 1 443 17 460 10 10 15 9 30 -6 10 -10 26 -22
36 -25 9 -4 17 -15 17 -25 0 -10 6 -24 13 -31 13 -13 12 -13 -38 4 -15 4 -16
8 -6 14 10 6 7 14 -12 35 -13 14 -26 26 -29 26 -2 0 -4 -42 -4 -92 0 -51 1
-74 3 -50 5 55 20 54 24 -2 2 -24 2 -43 -1 -41 -3 2 -12 0 -19 -4 -10 -6 -10
-17 -2 -47 7 -25 8 -118 4 -271 -5 -197 -4 -233 8 -233 10 0 11 -2 2 -8 -8 -5
-7 -14 7 -31 17 -23 19 -24 35 -8 20 20 35 22 35 5 0 -9 3 -9 9 1 5 8 16 11
24 8 10 -4 17 2 20 14 3 12 1 19 -6 18 -7 -1 -29 1 -49 5 l-38 8 0 154 c0 136
-8 189 -23 152 -3 -7 -5 32 -5 87 0 55 2 92 5 83 11 -44 23 -10 23 67 0 78 2
85 20 85 20 0 20 -7 20 -315 0 -203 4 -315 10 -315 6 0 10 116 10 328 l0 327
237 -3 c158 -2 240 -6 244 -14 4 -6 4 -28 1 -50 -2 -21 0 -49 6 -61 15 -32 22
-68 11 -61 -5 3 -10 17 -10 32 -1 15 -3 20 -6 11 -2 -9 1 -35 6 -60 6 -25 6
-48 1 -54 -8 -10 -12 -79 -11 -192 0 -41 4 -53 16 -53 8 0 15 8 15 18 0 14 -2
15 -10 2 -8 -12 -10 -11 -10 8 0 12 3 22 8 22 4 0 8 15 9 33 2 20 -1 27 -6 19
-7 -11 -10 -10 -15 3 -9 24 -7 47 3 41 5 -3 6 16 4 42 -3 35 -2 43 6 32 8 -12
11 -5 11 30 0 35 3 42 11 30 8 -12 9 -9 4 10 -4 14 -9 40 -10 58 -1 19 -6 37
-11 40 -13 10 -16 52 -4 52 6 0 10 -8 11 -17 0 -15 2 -15 8 2 5 11 4 22 0 23
-12 5 -11 30 1 34 12 4 1 48 -12 48 -5 0 -7 -3 -5 -7 3 -5 1 -17 -4 -28 -7
-18 -8 -17 -8 6 -1 15 -7 29 -13 31 -7 2 -117 4 -245 3 -127 0 -228 2 -223 5
5 3 114 5 242 5 l234 -1 2 23 2 23 -168 -2 -167 -2 160 -6 160 -6 -180 -2
c-99 -1 -202 -4 -230 -6 -27 -2 -35 -1 -17 1 17 2 32 9 32 15 0 6 -18 8 -47 4
-96 -12 -108 -11 -125 6 -14 14 -23 16 -45 8 -25 -9 -26 -9 -10 4 21 16 8 29
-19 19 -11 -4 -15 -3 -10 5 5 8 -148 11 -580 12 -323 0 -591 3 -595 6 -5 3 -9
0 -9 -5 0 -15 -60 -14 -92 1 -29 14 -25 -12 -58 393 -11 132 -29 330 -39 440
-11 110 -25 261 -31 335 -6 74 -20 224 -31 332 -21 220 -18 242 33 252 17 3
488 7 1047 7 691 1 979 5 901 11 -63 5 -204 7 -312 5 l-198 -3 0 170 c0 209 8
306 25 306 7 0 15 7 19 15 6 17 16 20 16 6z m26 -25 c10 -10 14 -38 14 -90 0
-70 -2 -76 -20 -76 -20 0 -21 6 -19 90 1 50 3 90 6 90 2 0 11 -6 19 -14z m210
1 c4 -4 -27 -7 -70 -7 -42 0 -75 4 -72 8 6 10 132 9 142 -1z m1464 -82 c0 -43
-4 -75 -10 -75 -6 0 -10 32 -10 75 0 43 4 75 10 75 6 0 10 -32 10 -75z m-1620
-160 c0 -43 -4 -75 -10 -75 -6 0 -10 32 -10 75 0 43 4 75 10 75 6 0 10 -32 10
-75z m1360 -102 c0 -44 -72 -58 -78 -14 -2 13 1 27 7 31 19 11 71 -1 71 -17z
m-1050 6 c0 -7 -50 -9 -155 -6 -85 2 -152 1 -150 -3 2 -3 36 -6 74 -5 39 1 71
-3 71 -7 0 -5 -44 -8 -97 -7 -54 1 -108 -1 -120 -5 -19 -6 -23 -4 -23 14 0 17
4 19 25 14 15 -4 25 -2 25 5 0 8 54 11 175 11 116 0 175 -4 175 -11z m170 1
c0 -6 -32 -10 -75 -10 -43 0 -75 4 -75 10 0 6 32 10 75 10 43 0 75 -4 75 -10z
m310 0 c0 -6 -32 -10 -75 -10 -43 0 -75 4 -75 10 0 6 32 10 75 10 43 0 75 -4
75 -10z m480 0 c0 -6 -30 -10 -69 -10 -39 0 -73 5 -76 10 -4 6 22 10 69 10 44
0 76 -4 76 -10z m170 -10 c0 -11 -4 -20 -10 -20 -5 0 -10 9 -10 20 0 11 5 20
10 20 6 0 10 -9 10 -20z m-640 -19 c13 -1 13 -3 -1 -14 -12 -9 -78 -11 -250
-9 -326 4 -379 6 -379 14 0 4 37 8 83 10 80 3 517 2 547 -1z m467 -14 c0 -10
-19 -13 -69 -12 -39 1 -73 -4 -78 -10 -5 -6 -38 -10 -77 -9 -100 3 -103 3
-103 17 0 9 24 11 95 9 64 -3 95 0 95 7 0 7 25 11 68 11 50 0 69 -4 69 -13z
m-426 -12 l8 20 1 -20 c1 -20 2 -20 9 -1 8 20 8 20 13 0 4 -17 0 -20 -27 -20
-27 0 -31 3 -26 21 5 20 5 20 9 0 l5 -20 8 20z m71 -21 c11 -1 14 4 12 20 -4
20 -4 20 5 -1 6 -13 15 -23 21 -23 5 0 10 -4 10 -9 0 -5 -15 -8 -32 -7 -18 2
-39 -1 -46 -7 -9 -7 -152 -8 -435 -3 -518 9 -514 9 -529 25 -14 15 125 12 507
-10 128 -7 247 -8 330 -3 l130 9 -2 25 c-2 21 -1 22 5 6 5 -11 15 -20 24 -22z
m-5 14 c-3 -8 -6 -5 -6 6 -1 11 2 17 5 13 3 -3 4 -12 1 -19z m-179 -13 c3 -3
-52 -5 -122 -5 -70 0 -125 4 -122 8 6 9 235 6 244 -3z m957 -91 c-14 -15 -25
-31 -25 -35 0 -5 -13 -9 -30 -9 -27 0 -30 3 -30 31 0 29 1 30 40 26 22 -2 43
0 46 4 3 5 9 9 14 9 5 0 -2 -12 -15 -26z m20 -91 c-10 -53 -19 -31 -10 24 5
26 10 40 13 30 2 -11 1 -35 -3 -54z m-258 15 c-3 -8 -6 -5 -6 6 -1 11 2 17 5
13 3 -3 4 -12 1 -19z m233 -28 c0 -22 4 -40 9 -40 4 0 7 -34 5 -76 -3 -81 -14
-116 -14 -46 0 31 -4 42 -15 42 -12 0 -15 16 -15 80 0 64 3 80 15 80 11 0 15
-11 15 -40z m-233 -92 c-2 -13 -4 -3 -4 22 0 25 2 35 4 23 2 -13 2 -33 0 -45z
m213 -131 c0 -13 -4 -27 -8 -32 -5 -6 -6 -32 -3 -60 l5 -50 7 45 c19 125 -7
-227 -30 -420 -6 -47 -11 -88 -11 -92 0 -5 -4 -8 -9 -8 -6 0 -5 16 1 38 6 21
9 86 6 152 -3 63 -3 100 -1 83 6 -47 23 -41 23 7 0 33 -3 40 -20 40 -22 0 -27
28 -10 61 6 10 7 19 3 19 -10 0 -9 140 1 163 5 9 12 17 17 17 5 0 9 14 9 30 0
17 5 30 10 30 6 0 10 -10 10 -23z m-210 -28 c0 -18 -2 -20 -15 -9 -13 11 -13
15 -3 21 18 12 18 12 18 -12z m-30 -29 c0 -11 5 -20 10 -20 6 0 10 -4 10 -10
0 -5 -7 -10 -15 -10 -13 0 -14 -4 -5 -20 9 -16 8 -20 -5 -20 -11 0 -15 12 -15
50 0 28 5 50 10 50 6 0 10 -9 10 -20z m-4 -162 c-8 -96 -16 -99 -16 -5 0 49 4
77 11 77 7 0 9 -23 5 -72z m-108 27 c-3 -3 -9 2 -12 12 -6 14 -5 15 5 6 7 -7
10 -15 7 -18z m32 -5 c0 -5 -4 -10 -10 -10 -5 0 -10 5 -10 10 0 6 5 10 10 10
6 0 10 -4 10 -10z m20 -76 c0 -13 -4 -24 -10 -24 -5 0 -7 7 -4 15 4 8 1 15 -5
15 -6 0 -8 7 -5 15 9 21 24 8 24 -21z m77 -11 c-3 -10 -5 -2 -5 17 0 19 2 27
5 18 2 -10 2 -26 0 -35z m-1476 -3 c21 0 39 -4 39 -9 0 -5 -9 -7 -20 -4 -18 5
-20 0 -20 -34 0 -27 -6 -46 -20 -58 -18 -17 -20 -32 -22 -199 l-1 -181 -8 155
c-4 96 -11 156 -18 158 -12 4 -16 164 -4 176 4 3 13 4 21 1 7 -3 31 -5 53 -5z
m39 -325 c0 -97 -4 -155 -10 -155 -6 0 -10 58 -10 155 0 97 4 155 10 155 6 0
10 -58 10 -155z m1602 73 c-9 -9 -12 -1 -11 33 l1 44 11 -33 c7 -24 7 -36 -1
-44z m9 -113 c6 14 7 8 4 -20 -3 -22 -8 -89 -11 -150 -4 -60 -11 -113 -16
-116 -7 -4 -8 -42 -4 -100 3 -52 2 -85 -2 -75 -12 28 -21 8 -28 -63 -4 -37 -2
-71 5 -88 8 -21 9 -53 1 -123 -6 -52 -14 -121 -17 -153 -4 -36 -9 -53 -14 -45
-5 7 -6 22 -3 33 5 21 8 48 18 155 5 54 4 59 -5 30 -5 -19 -13 -60 -17 -90 -5
-41 -11 -56 -24 -58 -13 -2 -18 3 -18 17 0 12 -5 21 -11 21 -6 0 -9 12 -7 27
2 19 10 27 27 30 14 2 26 5 28 7 2 2 3 161 3 354 l0 351 37 38 c34 33 38 35
42 18 4 -20 4 -20 12 0z m419 -132 c-11 -17 -11 -17 -6 0 3 10 7 28 7 40 2 22
2 22 6 0 2 -12 -1 -30 -7 -40z m-783 -15 c0 -7 4 -22 8 -33 6 -17 4 -17 -14 4
-12 12 -18 27 -15 32 8 13 21 11 21 -3z m838 -748 c-3 -124 -5 -361 -5 -527 0
-195 -4 -303 -10 -303 -6 0 -10 27 -10 60 0 59 0 60 -29 60 -25 0 -30 5 -35
34 -4 19 -4 64 0 100 5 47 3 66 -5 66 -8 0 -11 -47 -11 -160 l0 -160 -29 0
c-28 0 -30 3 -34 43 -5 47 1 -318 7 -403 l4 -55 -7 50 -7 50 -6 -40 c-3 -22
-4 -4 -2 40 1 44 0 68 -3 52 -8 -47 -32 -8 -33 55 -3 128 1 208 10 208 12 0
13 -157 2 -162 -12 -4 -2 -78 10 -78 6 0 8 73 7 190 -2 104 0 193 4 197 4 3 7
-2 8 -13 1 -15 3 -13 9 6 10 33 12 100 2 100 -7 0 -9 94 -4 198 3 59 22 53 22
-8 0 -43 3 -50 20 -50 13 0 20 -7 20 -20 0 -11 5 -20 10 -20 6 0 9 30 8 73 -1
47 -3 58 -5 30 -3 -29 -9 -43 -19 -43 -11 0 -14 20 -14 104 0 65 4 107 11 112
7 4 9 28 5 68 -5 58 -5 60 9 31 13 -28 14 -25 13 60 -1 86 -2 87 -8 30 -4 -36
-8 -48 -9 -30 -3 29 -3 30 -10 5 -7 -25 -7 -25 -14 6 -7 37 1 76 15 68 5 -3 9
30 9 83 0 48 0 111 0 140 0 37 3 51 12 47 8 -3 11 -21 8 -55 -2 -36 0 -49 8
-45 13 9 15 176 2 176 -5 0 -12 -10 -14 -22 -6 -25 0 104 10 222 4 52 8 69 14
55 7 -19 8 -19 8 3 1 13 5 20 11 17 6 -3 10 3 10 14 0 11 6 32 13 48 10 23 13
-12 19 -227 4 -140 6 -356 3 -480z m-505 348 c0 -45 -3 -59 -10 -48 -15 24
-10 110 6 110 2 0 4 -28 4 -62z m-3940 -19 c0 -31 -4 -48 -10 -44 -17 11 -12
95 7 95 2 0 3 -23 3 -51z m87 -271 c-3 -8 -6 -5 -6 6 -1 11 2 17 5 13 3 -3 4
-12 1 -19z m3513 2 c0 -5 -5 -10 -11 -10 -5 0 -7 5 -4 10 3 6 8 10 11 10 2 0
4 -4 4 -10z m11 -49 c6 10 9 3 9 -20 0 -33 -1 -34 -15 -15 -8 10 -14 28 -14
39 1 19 2 19 6 1 4 -15 7 -16 14 -5z m249 -161 c0 -73 4 -120 10 -120 12 0 12
-64 0 -100 -8 -24 -8 -24 -9 -2 -1 12 -5 22 -11 22 -6 0 -10 60 -10 160 0 100
4 160 10 160 6 0 10 -47 10 -120z m-310 73 c-11 -17 -11 -17 -6 0 3 10 6 24 7
30 0 9 2 9 5 0 3 -7 0 -20 -6 -30z m87 -18 c0 -30 -4 -55 -8 -55 -13 0 -11
-34 2 -47 7 -7 4 -12 -10 -16 -24 -6 -27 7 -10 50 7 19 7 29 0 31 -6 2 -11 10
-11 18 0 15 27 74 34 74 2 0 3 -25 3 -55z m250 -42 c-2 -16 -4 -3 -4 27 0 30
2 43 4 28 2 -16 2 -40 0 -55z m425 -15 c-9 -20 -11 -18 -11 22 0 40 2 42 11
23 8 -17 8 -29 0 -45z m-752 -7 c0 -17 -4 -32 -8 -35 -4 -2 -8 11 -8 30 0 19
4 34 8 34 4 0 8 -13 8 -29z m82 -88 c3 -34 -2 -55 -17 -69 -9 -10 -16 -37 -17
-72 -1 -51 -2 -53 -6 -17 l-6 40 -6 -40 -7 -40 -2 48 c0 27 3 47 10 47 5 0 8
4 4 9 -3 5 2 16 11 25 8 9 12 21 8 27 -5 8 -3 9 6 4 10 -6 12 -1 7 23 -4 19
-2 32 3 32 6 0 11 -8 12 -17z m-22 -14 c0 -5 -4 -9 -10 -9 -5 0 -10 7 -10 16
0 8 5 12 10 9 6 -3 10 -10 10 -16z m20 -99 c0 -16 -4 -30 -10 -30 -5 0 -10 14
-10 30 0 17 5 30 10 30 6 0 10 -13 10 -30z m182 -47 l3 -58 11 45 c9 35 12 39
13 18 1 -16 5 -28 9 -28 5 0 5 -21 0 -47 -4 -27 -11 -75 -15 -108 -6 -52 -7
-56 -14 -30 -6 27 -7 26 -8 -13 0 -24 3 -41 8 -38 10 6 4 -96 -10 -194 -18
-116 -27 -254 -22 -312 5 -49 3 -58 -11 -58 -12 0 -16 10 -16 40 0 29 -4 40
-15 40 -13 0 -15 24 -15 160 l0 160 30 0 c28 0 30 -2 31 -42 1 -42 2 -42 10
12 4 30 6 89 4 130 -14 240 -16 380 -6 380 5 0 11 -26 13 -57z m442 -248 c3
-8 1 -15 -4 -15 -6 0 -10 7 -10 15 0 8 2 15 4 15 2 0 6 -7 10 -15z m-1951 -32
c-6 -16 -25 -13 -31 5 -2 6 6 10 16 9 12 -1 18 -6 15 -14z m1327 -63 c0 -47
-4 -80 -10 -80 -6 0 -10 33 -10 80 0 47 4 80 10 80 6 0 10 -33 10 -80z m577
-347 c-3 -10 -5 -4 -5 12 0 17 2 24 5 18 2 -7 2 -21 0 -30z m-4010 -65 c-2
-13 -4 -5 -4 17 -1 22 1 32 4 23 2 -10 2 -28 0 -40z m4032 -29 c1 -20 4 -39 9
-43 9 -10 9 -296 0 -296 -5 0 -8 11 -8 23 0 16 -9 28 -25 35 -25 12 -26 15
-24 97 1 52 5 82 11 79 6 -4 8 21 5 67 -3 47 -2 59 3 34 7 -38 7 -37 9 20 2
44 5 55 11 40 5 -11 9 -36 9 -56z m-579 -39 c0 -47 -4 -80 -10 -80 -6 0 -10
33 -10 80 0 47 4 80 10 80 6 0 10 -33 10 -80z m-3432 -115 c0 -63 -12 -29 -21
60 -6 59 -6 59 8 25 7 -19 13 -57 13 -85z m3531 -9 c-2 -24 -1 -42 3 -40 3 2
4 -14 1 -36 -4 -26 -2 -40 5 -40 9 0 9 -7 0 -25 -12 -27 -28 -24 -28 6 0 11 4
18 8 15 15 -9 0 53 -16 66 -13 11 -15 10 -10 -7 3 -11 9 -28 13 -37 5 -14 2
-18 -14 -18 -14 0 -21 -6 -21 -20 0 -21 20 -29 20 -7 0 6 5 4 11 -6 8 -14 8
-22 0 -30 -8 -8 -11 -8 -11 0 0 6 -9 9 -20 6 -27 -7 -25 -23 3 -23 15 -1 10
-5 -17 -15 -22 -8 -43 -12 -48 -9 -4 3 -26 -4 -50 -16 -23 -11 -54 -20 -69
-20 -15 0 -29 -6 -32 -12 -2 -7 -4 -1 -4 15 0 26 2 27 32 21 23 -4 44 0 71 15
32 16 35 20 17 21 -13 0 -23 -4 -23 -10 0 -5 -12 -10 -26 -10 -14 0 -23 4 -19
10 4 6 -7 10 -24 10 -24 0 -31 4 -31 19 0 11 6 22 13 25 10 5 10 7 0 12 -20 9
-15 24 7 24 12 0 20 -7 20 -16 0 -8 6 -22 14 -30 17 -16 46 -19 46 -4 0 6 14
10 30 10 17 0 30 -4 30 -10 0 -5 9 -10 20 -10 19 0 20 7 20 110 l0 110 41 0
41 0 -3 -44z m531 -36 c0 -38 -4 -72 -10 -75 -6 -4 -10 23 -10 75 0 52 4 79
10 75 6 -3 10 -37 10 -75z m-1727 -32 c6 -40 -5 -55 -39 -55 -14 0 -22 2 -17
6 6 3 13 13 16 21 4 12 6 11 6 -2 1 -10 6 -18 12 -18 11 0 9 28 -6 63 -5 12
-3 17 8 17 9 0 17 -13 20 -32z m1218 -11 c-13 -13 -15 1 -4 30 7 17 8 17 11
-1 2 -10 -1 -23 -7 -29z m-1289 -19 c-7 -7 -12 -8 -12 -2 0 14 12 26 19 19 2
-3 -1 -11 -7 -17z m1749 -98 c28 0 39 -4 39 -15 0 -10 -10 -15 -30 -15 l-30 0
0 -105 c0 -87 -3 -105 -15 -105 -13 0 -15 18 -12 123 2 67 2 103 0 80 -5 -54
-23 -56 -23 -3 0 22 5 40 10 40 6 0 11 15 12 33 l1 32 4 -32 c4 -31 7 -33 44
-33z m-4017 -178 c5 -47 4 -59 -8 -59 -11 0 -14 19 -14 91 1 95 9 83 22 -32z
m2816 77 c0 -17 -8 -19 -60 -19 -53 0 -60 2 -60 20 0 17 7 19 60 19 52 -1 60
-4 60 -20z m189 10 c-8 -5 -26 -9 -41 -9 -35 0 -39 -34 -5 -45 l22 -7 -25 -8
c-14 -4 -42 -8 -63 -9 -26 -1 -36 -5 -31 -13 4 -6 3 -8 -4 -4 -6 3 -28 0 -49
-8 -64 -24 -93 -28 -93 -13 0 19 61 37 148 44 70 6 102 23 42 23 -16 0 -30 5
-30 10 0 6 5 10 10 10 6 0 10 8 10 18 0 16 9 19 61 19 40 1 57 -2 48 -8z m167
-6 c-41 -7 -72 -9 -76 -4 -3 5 -21 11 -40 13 -19 2 15 4 75 4 l110 1 -69 -14z
m884 -63 c0 -47 -4 -80 -10 -80 -5 0 -10 -9 -10 -20 0 -11 5 -20 10 -20 6 0
10 -27 10 -60 l0 -60 -60 0 c-33 0 -60 4 -60 10 0 6 -11 10 -25 10 -23 0 -24
2 -15 20 6 12 21 20 35 20 14 0 25 5 25 11 0 7 -14 10 -35 7 -19 -2 -35 0 -35
4 0 4 6 8 14 8 16 0 41 54 31 69 -3 6 -1 19 4 28 10 17 10 17 11 0 0 -10 7
-25 15 -33 8 -9 15 -24 15 -35 0 -10 5 -19 10 -19 6 0 10 14 10 30 0 17 5 30
10 30 6 0 10 33 10 80 0 73 2 80 20 80 18 0 20 -7 20 -80z m-1000 39 c11 -8 8
-9 -14 -4 -23 5 -27 3 -23 -9 5 -13 3 -14 -13 -3 -18 11 -19 12 -2 19 25 10
35 9 52 -3z m896 -37 c-12 -11 -18 7 -10 30 l8 23 4 -23 c2 -13 1 -26 -2 -30z
m-1296 -13 c0 -8 11 -9 33 -5 20 4 27 3 18 -3 -8 -5 -12 -18 -9 -29 5 -17 -1
-21 -35 -26 -22 -4 -42 -4 -45 -1 -3 3 4 5 16 5 17 0 22 6 22 25 0 18 -5 25
-20 25 -11 0 -20 5 -20 10 0 6 9 10 20 10 11 0 20 -5 20 -11z m-2620 -61 c0
-5 -4 -8 -10 -8 -5 0 -10 10 -10 23 0 18 2 19 10 7 5 -8 10 -18 10 -22z m2340
-18 c0 -5 -4 -10 -10 -10 -5 0 -10 5 -10 10 0 6 5 10 10 10 6 0 10 -4 10 -10z
m70 0 c0 -5 -12 -10 -27 -9 -25 0 -26 1 -8 9 27 12 35 12 35 0z m120 0 c8 -1
3 -8 -13 -16 -15 -8 -32 -12 -37 -9 -5 3 -23 -1 -39 -10 -17 -8 -43 -15 -60
-15 -16 0 -31 -6 -34 -12 -2 -7 -4 -1 -4 14 0 25 2 26 34 21 19 -3 38 -2 42 3
11 17 55 33 76 29 11 -3 27 -5 35 -5z m-388 -39 c2 -6 35 -6 86 1 85 10 112 5
78 -14 -15 -8 -16 -12 -5 -19 11 -7 11 -9 -3 -9 -9 0 -19 4 -23 10 -3 5 -12 7
-20 4 -8 -4 -13 -9 -11 -13 6 -10 -112 -44 -124 -36 -5 3 -20 -3 -32 -14 -12
-12 -32 -21 -44 -21 -12 0 -29 -3 -38 -6 -10 -4 -16 -1 -16 9 0 10 7 13 19 10
19 -5 78 22 94 42 4 6 10 5 16 -4 6 -9 16 -11 27 -7 16 6 16 8 4 16 -12 8 -11
10 5 11 11 0 14 3 7 6 -7 3 -27 0 -44 -6 -21 -8 -35 -8 -42 -1 -7 7 -5 10 6
10 9 0 18 9 21 20 5 20 33 28 39 11z m-185 -53 c-3 -8 -6 -5 -6 6 -1 11 2 17
5 13 3 -3 4 -12 1 -19z m1858 2 c-3 -5 -13 -10 -21 -10 -8 0 -14 -5 -14 -11 0
-6 9 -8 21 -4 15 5 19 4 15 -4 -4 -6 -14 -11 -22 -11 -8 0 -14 -5 -14 -10 0
-6 -6 -5 -14 2 -16 15 -4 35 29 48 27 12 27 11 20 0z m-3708 -6 c-3 -3 -12 -4
-19 -1 -8 3 -5 6 6 6 11 1 17 -2 13 -5z m3610 -29 c0 -8 -4 -15 -8 -15 -4 0
-9 7 -13 15 -3 9 0 15 8 15 7 0 13 -7 13 -15z m113 -15 c-8 -5 -19 -10 -25
-10 -5 0 -3 5 5 10 8 5 20 10 25 10 6 0 3 -5 -5 -10z m-325 -47 c-18 -13 -18
-13 1 -14 10 -1 41 -1 67 1 71 3 207 -11 207 -21 0 -5 -7 -9 -15 -9 -12 0 -15
-20 -15 -120 l0 -120 -103 0 c-57 0 -107 -3 -111 -7 -12 -12 -410 -10 -418 2
-5 6 -8 4 -8 -5 0 -13 -1 -13 -10 0 -5 8 -15 15 -22 15 -8 0 -14 15 -16 38 -4
50 -22 48 -22 -3 0 -29 4 -40 15 -40 8 0 15 -3 15 -8 0 -4 -61 -7 -135 -7
-123 0 -157 5 -122 18 6 3 -6 4 -28 2 -22 -1 -32 -1 -22 2 9 2 17 13 17 23 0
13 10 20 37 25 24 4 39 3 41 -4 2 -6 12 -11 23 -11 14 0 19 7 19 25 0 23 4 25
43 26 l42 1 -45 13 -45 13 83 1 c66 1 82 4 82 16 0 8 9 15 19 15 10 0 29 11
42 25 29 29 44 33 29 6 -10 -19 -9 -19 29 -3 21 9 38 23 37 30 -1 16 74 40
138 46 21 2 41 8 45 14 4 6 26 14 49 18 23 4 45 11 48 15 3 5 10 6 16 3 7 -5
4 -12 -7 -21z m-3040 -3 c3 -5 -1 -10 -10 -10 -9 0 -13 5 -10 10 3 6 8 10 10
10 2 0 7 -4 10 -10z m2640 -100 c3 -5 -3 -10 -14 -10 -10 0 -28 -3 -38 -6 -10
-3 -7 2 7 10 30 18 37 19 45 6z m-126 -46 c2 -2 -16 -4 -40 -4 -24 0 -55 -3
-69 -5 -22 -5 -21 -3 5 9 26 13 89 13 104 0z m-1894 -39 c-18 -9 -23 -14 -13
-15 9 0 20 -4 23 -10 4 -6 -17 -10 -54 -10 -34 0 -61 4 -61 10 0 6 15 10 33
10 17 0 41 7 51 15 11 8 27 15 35 14 9 0 3 -7 -14 -14z m1730 -3 c-3 -3 -11 0
-18 7 -9 10 -8 11 6 5 10 -3 15 -9 12 -12z m65 14 c0 -3 -4 -8 -10 -11 -5 -3
-10 -1 -10 4 0 6 5 11 10 11 6 0 10 -2 10 -4z m-1740 -16 c0 -5 -7 -10 -16
-10 -8 0 -12 5 -9 10 3 6 10 10 16 10 5 0 9 -4 9 -10z m160 -30 c0 -5 -10 -10
-22 -10 -19 0 -20 2 -8 10 19 13 30 13 30 0z m1357 4 c-3 -3 -12 -4 -19 -1 -8
3 -5 6 6 6 11 1 17 -2 13 -5z m-1332 -24 c3 -6 17 -7 31 -4 36 9 29 -4 -8 -16
l-33 -10 35 6 c55 9 100 8 110 -2 5 -5 -16 -10 -53 -12 -74 -3 -110 4 -101 20
5 7 -8 9 -42 5 l-49 -6 45 14 c58 17 58 17 65 5z m1388 3 c-31 -4 -43 -16 -25
-26 4 -2 1 -2 -6 0 -8 1 -20 3 -28 3 -8 0 -14 4 -14 9 0 11 31 18 75 18 29 0
29 0 -2 -4z m-139 -12 c4 -5 -3 -7 -14 -4 -23 6 -26 13 -6 13 8 0 17 -4 20 -9z
m-108 -28 c-11 -11 -35 -12 -42 -2 -3 5 7 9 22 9 15 0 24 -3 20 -7z m118 -2
c4 -5 -3 -7 -14 -4 -23 6 -26 13 -6 13 8 0 17 -4 20 -9z m-1044 -14 c0 -9 9
-12 29 -9 16 2 44 -3 62 -11 19 -8 46 -18 60 -21 14 -3 36 -15 49 -26 l23 -20
-70 0 c-66 0 -71 1 -75 24 -4 19 -1 23 16 20 12 -2 6 2 -13 8 -24 8 -41 9 -62
1 -29 -11 -41 -6 -68 30 -12 15 -10 17 18 17 19 0 31 -5 31 -13z m800 -7 c0
-5 -5 -10 -11 -10 -5 0 -7 -5 -4 -11 4 -5 17 -9 28 -8 56 4 68 0 65 -23 -3
-26 -46 -38 -58 -17 -10 15 -60 -32 -60 -56 0 -8 -9 -15 -20 -15 -24 0 -28 41
-5 60 8 7 13 16 10 20 -3 5 3 6 14 3 10 -3 22 0 25 6 5 7 -1 11 -15 11 -18 0
-19 2 -9 15 10 12 10 15 -1 15 -11 0 -11 2 1 10 20 13 40 13 40 0z m-745 -50
c-3 -5 -13 -10 -21 -10 -8 0 -12 5 -9 10 3 6 13 10 21 10 8 0 12 -4 9 -10z
m2015 1 c-115 -8 -1019 -5 -1027 3 -3 3 245 5 553 4 307 -1 521 -4 474 -7z
m-1820 -11 c8 -5 11 -10 5 -10 -5 0 -17 5 -25 10 -8 5 -10 10 -5 10 6 0 17 -5
25 -10z m918 -17 c-21 -2 -57 -2 -80 0 -24 2 -7 4 37 4 44 0 63 -2 43 -4z
m960 0 c-21 -2 -57 -2 -80 0 -24 2 -7 4 37 4 44 0 63 -2 43 -4z m-1696 -10
c-6 -2 -10 -9 -6 -14 3 -5 -3 -9 -13 -9 -10 0 -36 -3 -58 -6 -30 -4 -36 -3
-25 5 12 9 11 11 -8 11 -13 0 -20 4 -17 10 3 6 36 10 73 9 37 0 61 -3 54 -6z
m93 -3 c-3 -5 -15 -10 -26 -10 -10 0 -19 5 -19 10 0 6 12 10 26 10 14 0 23 -4
19 -10z m-277 -16 c35 -10 27 -33 -10 -32 -29 1 -58 17 -58 32 0 8 39 7 68 0z
m632 -14 c0 -13 -7 -20 -20 -20 -13 0 -20 7 -20 20 0 13 7 20 20 20 13 0 20
-7 20 -20z m1130 12 c0 -4 -187 -7 -415 -7 -228 0 -415 3 -415 7 0 5 187 8
415 8 228 0 415 -3 415 -8z m-1450 -12 c0 -5 -12 -10 -26 -10 -14 0 -23 4 -19
10 3 6 15 10 26 10 10 0 19 -4 19 -10z m240 -5 c0 -8 -7 -15 -16 -15 -14 0
-14 3 -4 15 7 8 14 15 16 15 2 0 4 -7 4 -15z m-321 -11 c2 -2 -25 -4 -60 -3
-44 0 -58 3 -44 9 18 7 94 3 104 -6z"/>
<path d="M8334 5923 c10 -10 1416 -10 1423 -1 2 5 -319 8 -713 8 -395 0 -714
-3 -710 -7z"/>
<path d="M9860 5810 c0 -29 4 -40 15 -40 11 0 15 11 15 40 0 29 -4 40 -15 40
-11 0 -15 -11 -15 -40z"/>
<path d="M9860 5746 c0 -8 7 -16 15 -20 10 -4 15 1 15 14 0 11 -7 20 -15 20
-8 0 -15 -6 -15 -14z"/>
<path d="M9378 5433 c12 -2 32 -2 45 0 12 2 2 4 -23 4 -25 0 -35 -2 -22 -4z"/>
<path d="M9277 5408 c-14 -11 -1 -12 75 -9 86 4 89 5 43 12 -75 11 -99 10
-118 -3z"/>
<path d="M8918 5373 c23 -2 61 -2 85 0 23 2 4 4 -43 4 -47 0 -66 -2 -42 -4z"/>
<path d="M9378 5373 c12 -2 32 -2 45 0 12 2 2 4 -23 4 -25 0 -35 -2 -22 -4z"/>
<path d="M9486 5362 c-3 -5 1 -9 9 -9 8 0 12 4 9 9 -3 4 -7 8 -9 8 -2 0 -6 -4
-9 -8z"/>
<path d="M9490 5317 c0 -15 6 -24 15 -24 10 0 12 4 6 10 -5 5 -7 16 -4 23 3 8
0 14 -6 14 -6 0 -11 -10 -11 -23z"/>
<path d="M9480 5240 c0 -16 4 -30 8 -30 5 0 7 14 4 30 -2 17 -6 30 -8 30 -2 0
-4 -13 -4 -30z"/>
<path d="M9513 5205 c0 -22 2 -30 4 -17 2 12 2 30 0 40 -3 9 -5 -1 -4 -23z"/>
<path d="M9519 5108 c0 -22 -1 -22 -9 -3 -8 19 -9 19 -9 -2 -1 -12 -4 -28 -7
-37 -5 -13 1 -16 25 -16 23 0 31 5 31 18 0 15 -2 15 -11 2 -8 -11 -9 -7 -6 18
2 18 0 35 -5 38 -4 3 -8 -5 -9 -18z"/>
<path d="M9471 5074 c0 -11 3 -14 6 -6 3 7 2 16 -1 19 -3 4 -6 -2 -5 -13z"/>
<path d="M9470 5044 c0 -6 11 -16 25 -22 21 -10 25 -9 25 4 0 10 -6 14 -14 11
-7 -3 -19 0 -25 6 -7 7 -11 7 -11 1z"/>
<path d="M8128 4763 c6 -2 18 -2 25 0 6 3 1 5 -13 5 -14 0 -19 -2 -12 -5z"/>
<path d="M8893 4763 c15 -2 39 -2 55 0 15 2 2 4 -28 4 -30 0 -43 -2 -27 -4z"/>
<path d="M9138 4763 c12 -2 32 -2 45 0 12 2 2 4 -23 4 -25 0 -35 -2 -22 -4z"/>
<path d="M8810 4750 c0 -5 5 -10 10 -10 6 0 10 5 10 10 0 6 -4 10 -10 10 -5 0
-10 -4 -10 -10z"/>
<path d="M8683 4233 c108 -2 286 -2 395 0 108 1 19 2 -198 2 -217 0 -306 -1
-197 -2z"/>
<path d="M8073 4213 c9 -2 23 -2 30 0 6 3 -1 5 -18 5 -16 0 -22 -2 -12 -5z"/>
<path d="M9390 4132 c0 -4 9 -8 20 -9 11 -1 20 2 20 5 0 4 -9 8 -20 9 -11 1
-20 -2 -20 -5z"/>
<path d="M9376 4095 c-9 -26 -7 -32 5 -12 6 10 9 21 6 23 -2 3 -7 -2 -11 -11z"/>
<path d="M9405 4100 c3 -6 1 -10 -5 -10 -8 0 -10 -9 -6 -24 4 -15 1 -26 -7
-29 -9 -3 -9 -7 2 -20 19 -24 34 -10 27 26 -3 16 -1 35 4 42 8 9 6 14 -5 19
-9 3 -13 2 -10 -4z"/>
<path d="M9363 3995 c0 -22 2 -30 4 -17 2 12 2 30 0 40 -3 9 -5 -1 -4 -23z"/>
<path d="M9421 3958 c-1 -34 -18 -37 -31 -5 -8 21 -9 21 -9 1 -1 -11 2 -24 6
-27 3 -4 7 -26 8 -49 3 -73 4 -75 15 -58 5 8 7 25 3 38 -3 13 0 41 7 62 7 21
10 44 7 51 -3 8 -6 2 -6 -13z"/>
<path d="M9378 3760 c2 -16 9 -30 14 -30 6 0 8 9 5 21 -4 15 -2 19 9 15 8 -3
14 -1 14 3 0 9 -24 21 -39 21 -4 0 -6 -13 -3 -30z"/>
<path d="M9340 3714 c0 -8 5 -12 10 -9 6 3 10 10 10 16 0 5 -4 9 -10 9 -5 0
-10 -7 -10 -16z"/>
<path d="M9420 3707 c0 -20 -4 -21 -31 -7 -13 7 -19 7 -19 0 0 -5 5 -10 10
-10 6 0 10 -16 10 -35 0 -26 4 -33 14 -29 15 6 33 81 22 91 -3 4 -6 -1 -6 -10z"/>
<path d="M6733 3613 c9 -2 25 -2 35 0 9 3 1 5 -18 5 -19 0 -27 -2 -17 -5z"/>
<path d="M8055 3591 c20 -20 25 -20 139 -10 85 8 121 8 129 0 14 -14 81 -15
72 0 -5 7 34 9 124 7 72 -2 131 0 131 5 0 4 -30 7 -67 7 -38 0 -176 3 -308 6
l-240 6 20 -21z m148 2 c-24 -2 -62 -2 -85 0 -24 2 -5 4 42 4 47 0 66 -2 43
-4z"/>
<path d="M8675 3596 c-12 -14 -17 -86 -5 -86 4 0 10 7 14 15 11 31 26 14 28
-32 1 -39 2 -42 5 -14 6 44 -4 84 -18 75 -16 -10 -30 18 -17 33 13 17 7 25 -7
9z"/>
<path d="M8702 3395 c0 -16 2 -22 5 -12 2 9 2 23 0 30 -3 6 -5 -1 -5 -18z"/>
<path d="M8693 3315 c0 -22 2 -30 4 -17 2 12 2 30 0 40 -3 9 -5 -1 -4 -23z"/>
<path d="M8021 3253 c1 -53 6 -49 11 10 2 20 0 37 -4 37 -4 0 -8 -21 -7 -47z"/>
<path d="M9290 3204 c0 -8 5 -12 10 -9 6 3 10 10 10 16 0 5 -4 9 -10 9 -5 0
-10 -7 -10 -16z"/>
<path d="M9324 3206 c-3 -8 -4 -27 -2 -43 3 -23 5 -20 9 15 5 43 2 53 -7 28z"/>
<path d="M8664 3159 c-3 -6 -1 -16 5 -22 8 -8 11 -5 11 11 0 24 -5 28 -16 11z"/>
<path d="M9285 3126 c-9 -55 -4 -78 15 -83 13 -4 13 -3 1 5 -11 8 -12 24 -7
66 7 66 0 76 -9 12z"/>
<path d="M9336 3129 c-9 -28 -13 -109 -6 -114 8 -5 23 115 15 123 -2 3 -7 -1
-9 -9z"/>
<path d="M8378 2973 c-32 -2 -58 -9 -58 -15 0 -6 9 -8 20 -5 11 3 18 1 15 -3
-3 -5 3 -11 12 -13 10 -3 4 -5 -14 -6 -17 0 -33 -4 -36 -8 -2 -5 -2 -2 -1 5 6
23 -8 42 -32 42 -23 0 -24 -3 -24 -65 0 -65 0 -65 28 -65 16 0 32 -3 36 -7 4
-5 19 -8 33 -8 25 -1 25 -1 5 15 -20 16 -20 17 -1 29 23 14 39 7 39 -17 1 -15
2 -15 11 2 9 14 8 20 -2 27 -10 6 -8 9 9 9 20 0 21 -2 11 -21 -8 -15 -8 -19 0
-15 10 6 15 -6 12 -26 0 -4 6 -5 14 -3 50 16 48 14 34 32 -12 15 -12 16 6 9
11 -4 17 -4 13 -1 -3 4 7 19 24 35 16 16 27 33 24 39 -4 5 -1 13 5 17 7 4 9 3
6 -3 -4 -7 2 -10 16 -9 19 1 23 5 19 21 -3 11 -7 14 -9 8 -3 -8 -15 -10 -35
-6 -28 5 -30 4 -23 -16 9 -29 -10 -27 -39 4 -13 14 -32 24 -42 23 -11 -1 -45
-3 -76 -5z m102 -13 c0 -5 -9 -10 -19 -10 -11 0 -23 5 -26 10 -4 6 5 10 19 10
14 0 26 -4 26 -10z m40 -39 c0 -15 -19 -23 -32 -14 -7 4 -24 7 -38 6 l-25 -2
25 8 c35 12 70 13 70 2z m-165 -25 c-11 -8 -24 -12 -29 -8 -5 3 -1 9 10 13 31
12 39 10 19 -5z m128 -13 c-7 -2 -19 -2 -25 0 -7 3 -2 5 12 5 14 0 19 -2 13
-5z m-20 -30 c-3 -7 -6 -13 -8 -13 -2 0 -5 6 -8 13 -3 8 1 14 8 14 7 0 11 -6
8 -14z"/>
<path d="M8500 2965 c0 -8 5 -15 10 -15 6 0 10 7 10 15 0 8 -4 15 -10 15 -5 0
-10 -7 -10 -15z"/>
<path d="M8617 2956 c5 -22 -12 -36 -47 -41 -3 0 -11 -4 -19 -9 -11 -7 -11
-10 0 -17 11 -7 9 -9 -6 -10 l-20 0 20 -9 c19 -8 19 -9 1 -9 -11 -1 -17 -4
-13 -7 3 -3 20 -3 38 1 29 7 31 9 16 20 -15 11 -14 13 11 26 34 17 57 39 43
39 -6 0 -11 9 -11 20 0 11 -4 20 -9 20 -4 0 -6 -11 -4 -24z"/>
<path d="M8031 2868 c0 -60 3 -108 7 -108 5 0 7 42 5 93 -6 132 -10 139 -12
15z"/>
<path d="M9271 2864 c0 -11 3 -14 6 -6 3 7 2 16 -1 19 -3 4 -6 -2 -5 -13z"/>
<path d="M8299 2801 l-24 -20 23 6 c23 5 38 20 29 29 -2 2 -15 -4 -28 -15z"/>
<path d="M8222 2801 c-11 -7 -11 -9 0 -14 9 -3 15 1 15 9 0 8 -1 14 -1 14 -1
0 -7 -4 -14 -9z"/>
<path d="M8348 2803 c7 -3 16 -2 19 1 4 3 -2 6 -13 5 -11 0 -14 -3 -6 -6z"/>
<path d="M9270 2765 c-1 -5 -2 -14 -1 -19 1 -4 -3 -14 -9 -21 -12 -14 -10 -85
2 -85 14 0 28 75 19 105 -5 17 -10 26 -11 20z m1 -76 l-9 -34 -1 31 c-1 17 2
34 6 37 12 13 14 -1 4 -34z"/>
<path d="M8063 2744 c1 -14 7 -21 17 -19 8 2 23 4 33 4 9 1 17 8 17 16 0 19
-7 19 -27 0 -14 -14 -17 -14 -29 2 -12 17 -13 17 -11 -3z"/>
<path d="M8036 2733 c-6 -14 -5 -15 5 -6 7 7 10 15 7 18 -3 3 -9 -2 -12 -12z"/>
<path d="M9261 2603 c0 -12 -6 -25 -11 -28 -6 -4 -7 -13 -1 -23 4 -9 6 -24 4
-32 -3 -10 2 -8 13 5 l17 20 -8 -20 c-15 -40 -17 -63 -5 -70 9 -5 10 -1 5 14
-5 18 -2 21 19 21 24 0 26 3 26 50 0 43 -3 50 -20 50 -11 0 -21 -6 -21 -12 -1
-7 -5 1 -9 17 -6 23 -8 25 -9 8z"/>
<path d="M9227 2451 c-4 -17 -3 -21 5 -13 5 5 8 16 6 23 -3 8 -7 3 -11 -10z"/>
<path d="M9016 2361 c-11 -4 -15 -10 -10 -13 5 -4 18 0 29 8 20 15 12 17 -19
5z"/>
<path d="M8855 2320 c-18 -8 -17 -9 8 -9 16 -1 26 3 22 9 -3 6 -7 10 -8 9 -1
0 -11 -4 -22 -9z"/>
<path d="M8900 2300 c0 -5 5 -10 11 -10 5 0 7 5 4 10 -3 6 -8 10 -11 10 -2 0
-4 -4 -4 -10z"/>
<path d="M8942 2294 c-7 -8 -8 -14 -3 -14 10 0 25 19 20 25 -2 1 -10 -3 -17
-11z"/>
<path d="M8767 2286 c-5 -11 -1 -16 13 -16 11 0 20 -4 20 -10 0 -15 -36 -12
-49 3 -6 8 -10 16 -8 18 1 2 -4 -2 -10 -10 -8 -9 -13 -10 -13 -3 0 7 -15 4
-42 -8 -22 -10 -48 -16 -57 -13 -11 4 -9 0 4 -10 15 -13 16 -17 5 -17 -12 0
-11 -3 3 -11 10 -6 25 -8 33 -5 8 3 14 1 14 -4 0 -6 9 -10 20 -10 11 0 20 -6
20 -12 0 -9 3 -10 8 -2 4 6 20 14 35 18 15 4 30 14 33 24 17 52 26 61 52 51
13 -5 27 -8 29 -5 3 2 -5 7 -18 11 -17 6 -19 9 -8 17 10 7 9 8 -6 3 -32 -12
-59 -13 -66 -3 -3 5 -9 3 -12 -6z"/>
<path d="M8568 2233 c13 -3 19 -9 16 -15 -4 -7 -2 -8 5 -4 17 11 3 26 -22 25
-22 -2 -22 -2 1 -6z"/>
<path d="M8514 2202 c3 -6 0 -13 -6 -15 -7 -3 -2 -6 10 -6 25 -1 26 19 2 27
-7 3 -10 0 -6 -6z"/>
<path d="M8560 2180 c-13 -8 -12 -10 3 -10 9 0 17 5 17 10 0 12 -1 12 -20 0z"/>
<path d="M8610 2179 c0 -5 5 -7 10 -4 6 3 10 8 10 11 0 2 -4 4 -10 4 -5 0 -10
-5 -10 -11z"/>
<path d="M8215 2140 c3 -5 1 -10 -4 -10 -6 0 -3 -9 6 -19 9 -11 20 -18 25 -15
13 8 9 24 -7 24 -9 0 -12 6 -9 15 4 8 1 15 -6 15 -6 0 -8 -4 -5 -10z"/>
<path d="M8240 2143 c1 -14 49 -43 54 -34 3 5 -5 16 -19 25 -27 18 -35 20 -35
9z"/>
<path d="M8100 2104 c0 -17 22 -14 28 4 2 7 -3 12 -12 12 -9 0 -16 -7 -16 -16z"/>
<path d="M8050 2035 c0 -8 7 -15 15 -15 9 0 12 6 9 15 -4 8 -10 15 -15 15 -5
0 -9 -7 -9 -15z"/>
<path d="M8130 2040 c0 -5 5 -10 10 -10 6 0 10 5 10 10 0 6 -4 10 -10 10 -5 0
-10 -4 -10 -10z"/>
<path d="M8057 1937 c-8 -72 -5 -99 8 -85 3 3 5 41 3 84 l-3 79 -8 -78z"/>
<path d="M9454 5515 c-9 -21 -2 -26 13 -10 8 9 9 16 3 20 -6 3 -13 -1 -16 -10z"/>
<path d="M9783 4930 c0 -25 2 -35 4 -22 2 12 2 32 0 45 -2 12 -4 2 -4 -23z"/>
<path d="M9802 4835 c0 -16 2 -22 5 -12 2 9 2 23 0 30 -3 6 -5 -1 -5 -18z"/>
<path d="M8062 4625 c0 -16 2 -22 5 -12 2 9 2 23 0 30 -3 6 -5 -1 -5 -18z"/>
<path d="M9694 3948 c0 -36 4 -64 9 -61 9 5 7 57 -3 98 -5 21 -7 11 -6 -37z"/>
<path d="M10156 3294 c-8 -22 -4 -25 11 -9 7 8 9 16 4 19 -5 3 -12 -1 -15 -10z"/>
<path d="M10130 3225 c0 -8 7 -15 16 -15 14 0 14 3 4 15 -7 8 -14 15 -16 15
-2 0 -4 -7 -4 -15z"/>
<path d="M10083 3010 c0 -25 2 -35 4 -22 2 12 2 32 0 45 -2 12 -4 2 -4 -23z"/>
<path d="M9642 3025 c0 -16 2 -22 5 -12 2 9 2 23 0 30 -3 6 -5 -1 -5 -18z"/>
<path d="M9614 2965 c1 -28 6 -49 11 -48 13 3 19 53 6 53 -5 0 -11 10 -14 23
-2 12 -3 0 -3 -28z"/>
<path d="M10025 2238 c-11 -38 -11 -67 1 -72 11 -4 14 6 14 39 0 44 -7 58 -15
33z"/>
<path d="M9448 1923 c7 -3 16 -2 19 1 4 3 -2 6 -13 5 -11 0 -14 -3 -6 -6z"/>
<path d="M8790 1740 c-9 -6 -10 -10 -3 -10 6 0 15 5 18 10 8 12 4 12 -15 0z"/>
<path d="M9964 1655 c-7 -17 4 -37 17 -30 12 8 12 45 -1 45 -6 0 -13 -7 -16
-15z"/>
<path d="M8545 1670 c-3 -5 -1 -10 4 -10 6 0 11 5 11 10 0 6 -2 10 -4 10 -3 0
-8 -4 -11 -10z"/>
<path d="M9500 1475 c-10 -12 -10 -15 4 -15 9 0 16 7 16 15 0 8 -2 15 -4 15
-2 0 -9 -7 -16 -15z"/>
<path d="M9320 1434 c-32 -9 -38 -13 -20 -13 20 -1 22 -3 10 -11 -12 -7 -8
-10 15 -10 22 0 33 7 42 25 6 14 8 24 5 24 -4 -1 -27 -7 -52 -15z"/>
<path d="M9265 1380 c-16 -7 -17 -9 -3 -9 9 -1 20 4 23 9 7 11 7 11 -20 0z"/>
<path d="M9328 1373 c6 -2 18 -2 25 0 6 3 1 5 -13 5 -14 0 -19 -2 -12 -5z"/>
<path d="M7720 1146 c0 -2 11 -6 25 -8 13 -3 22 -1 19 3 -5 9 -44 13 -44 5z"/>
<path d="M40 4429 c-25 -3 1265 -5 2865 -5 1601 0 2753 2 2560 3 -755 6 -5383
8 -5425 2z"/>
<path d="M10219 4435 c0 0 -2 -8 -4 -18 -2 -9 1 -15 6 -11 8 4 14 -17 10 -38
0 -5 1298 -8 2885 -8 l2885 0 -3 23 -3 22 -2872 0 c-1579 0 -2875 3 -2879 8
-4 4 1291 8 2877 9 1586 2 2515 4 2064 5 -570 2 -4371 8 -4966 8z"/>
<path d="M5804 4342 c-1 -40 1 -49 7 -32 10 34 11 78 2 83 -5 3 -8 -20 -9 -51z"/>
<path d="M5762 4350 c0 -14 2 -19 5 -12 2 6 2 18 0 25 -3 6 -5 1 -5 -13z"/>
<path d="M5760 4284 c0 -8 5 -12 10 -9 6 3 10 10 10 16 0 5 -4 9 -10 9 -5 0
-10 -7 -10 -16z"/>
<path d="M5762 4200 c0 -19 2 -27 5 -17 2 9 2 25 0 35 -3 9 -5 1 -5 -18z"/>
<path d="M5780 4150 c0 -11 2 -20 5 -20 2 0 9 9 15 20 9 16 8 20 -5 20 -8 0
-15 -9 -15 -20z"/>
<path d="M5841 3733 c0 -16 4 -48 8 -73 8 -43 9 -41 10 28 0 42 -3 72 -9 72
-5 0 -10 -12 -9 -27z"/>
<path d="M5840 3515 c0 -8 5 -15 10 -15 6 0 10 7 10 15 0 8 -4 15 -10 15 -5 0
-10 -7 -10 -15z"/>
<path d="M5773 3075 c-8 -9 -13 -43 -13 -90 0 -63 3 -75 16 -75 9 0 26 -10 37
-22 13 -16 21 -19 24 -10 3 6 13 12 24 12 25 0 24 12 -1 30 -21 15 -29 80 -10
80 6 0 10 16 10 35 0 19 -4 35 -10 35 -5 0 -10 -4 -10 -10 0 -5 -9 -10 -20
-10 -13 0 -20 7 -20 20 0 23 -10 25 -27 5z"/>
<path d="M5922 2990 l0 -65 11 43 c7 29 7 49 -1 65 -9 18 -11 10 -10 -43z"/>
<path d="M5892 3015 c-11 -12 -10 -15 3 -15 8 0 15 7 15 15 0 18 -2 18 -18 0z"/>
<path d="M5922 2590 c0 -14 2 -19 5 -12 2 6 2 18 0 25 -3 6 -5 1 -5 -13z"/>
<path d="M6032 1880 c0 -19 2 -27 5 -17 2 9 2 25 0 35 -3 9 -5 1 -5 -18z"/>
<path d="M6178 1533 c12 -2 32 -2 45 0 12 2 2 4 -23 4 -25 0 -35 -2 -22 -4z"/>
<path d="M6420 1460 c-11 -7 -6 -10 20 -10 26 0 31 3 20 10 -8 5 -17 10 -20
10 -3 0 -12 -5 -20 -10z"/>
<path d="M6750 1390 c0 -5 5 -10 10 -10 6 0 10 5 10 10 0 6 -4 10 -10 10 -5 0
-10 -4 -10 -10z"/>
</g>
</svg>
